/* XPM */
static char *front[] = {
/* columns rows colors chars-per-pixel */
"50 50 163 2 ",
"   c #000100",
".  c #0B0601",
"X  c #030B03",
"o  c #060809",
"O  c #0B0C0C",
"+  c #110D00",
"@  c #1B0F04",
"#  c #041305",
"$  c #001C05",
"%  c #071708",
"&  c #091C09",
"*  c #1A1302",
"=  c #121508",
"-  c #14181A",
";  c #1A1B1B",
":  c #0C270D",
">  c #002B08",
",  c #182E0A",
"<  c #003209",
"1  c #003E0B",
"2  c #0F3310",
"3  c #123414",
"4  c #123A14",
"5  c #192226",
"6  c #1D2529",
"7  c #212121",
"8  c #202A2F",
"9  c gray17",
"0  c #212B30",
"q  c #273338",
"w  c #29363C",
"e  c #323232",
"r  c #353D36",
"t  c #522D0C",
"y  c #583400",
"u  c #563F28",
"i  c #03440D",
"p  c #0C410C",
"a  c #00560F",
"s  c #154316",
"d  c #075F10",
"f  c #1D5B1E",
"g  c #2C470F",
"h  c #006111",
"j  c #056816",
"k  c #007515",
"l  c #0A771A",
"z  c #364E3A",
"x  c #156422",
"c  c #1F6120",
"v  c #206423",
"b  c #216A24",
"n  c #247226",
"m  c #277929",
"M  c #50540E",
"N  c #764F0B",
"B  c #7D5E03",
"V  c #293A42",
"C  c #33434B",
"Z  c #3E525A",
"A  c #396641",
"S  c gray28",
"D  c #4A4A4A",
"F  c #594E45",
"G  c #41555F",
"H  c gray34",
"J  c gray36",
"K  c #4E6C4F",
"L  c #455A64",
"P  c #4D6571",
"I  c #556F7B",
"U  c #696969",
"Y  c #7A7A7A",
"T  c #A55B18",
"R  c #AA6500",
"E  c #AC6416",
"W  c #9C683E",
"Q  c #DE7A20",
"!  c #E47D20",
"~  c #9D6A42",
"^  c #9F6F48",
"/  c #A26E44",
"(  c #A26F4A",
")  c #A47146",
"_  c #A97446",
"`  c #A5724A",
"'  c #AA764B",
"]  c #AD7A4E",
"[  c #B07B4E",
"{  c #AA7651",
"}  c #AD7C52",
"|  c #B27E52",
" . c #028217",
".. c #008C19",
"X. c #00931A",
"o. c #009D1C",
"O. c #0C9D1D",
"+. c #0DA01D",
"@. c #1FA31F",
"#. c #2A832C",
"$. c #2D8D2F",
"%. c #2D8E30",
"&. c #2E9231",
"*. c #309733",
"=. c #329C35",
"-. c #0FA028",
";. c #22A237",
":. c #4CAA23",
">. c #69AE25",
",. c #6EB126",
"<. c #19AC49",
"1. c #13B241",
"2. c #28BC67",
"3. c #22C15D",
"4. c #2CCB6F",
"5. c #AA8B09",
"6. c #CF9604",
"7. c #D69C05",
"8. c #E39001",
"9. c #F0970A",
"0. c #E6861E",
"q. c #C6A10B",
"w. c #E7AC0A",
"e. c #EDBB08",
"r. c #E58120",
"t. c #EFC20A",
"y. c #F0C30E",
"u. c #F1C516",
"i. c #B58255",
"p. c #B98456",
"a. c #B6855A",
"s. c #BA8659",
"d. c #B7885C",
"f. c #BC8A5C",
"g. c #BE8D61",
"h. c #BF9061",
"j. c #C18C5E",
"k. c #C28E61",
"l. c #C49264",
"z. c #C99466",
"x. c #C69569",
"c. c #CA9768",
"v. c #C7986A",
"b. c #CC9A6C",
"n. c #D19D6F",
"m. c #CE9E71",
"M. c #D19F70",
"N. c #CFA072",
"B. c #D2A274",
"V. c #D7A67A",
"C. c #D8A97C",
"Z. c #EEAE71",
"A. c #F2C940",
"S. c #F4D352",
"D. c #5A7583",
"F. c #5C7986",
"G. c #5F7C8A",
"H. c #7FB281",
"J. c #909790",
"K. c #DCAD82",
"L. c #F5D8BE",
"P. c #FAEDBA",
"I. c #FDFDFC",
/* pixels */
"k.f.h.h.N.v.h.f.k.b.b.b.N.N.d.z.z.g.d.l.j.j.z.k.j.s.x.v.g.m.x.l.c.z.n.z.c.n.j.p.p.} ' i.d.g.h.h.g.d.",
"f.f.h.l.b.v.l.j.l.b.b.b.N.b.d.v.a.d.d.l.j.f.p.j.k.i.x.c.b.b.z.l.n.l.n.k.j.p.p.p.p.' ` d.d.d.h.h.g.a.",
"f.f.g.l.h.l.k.b.l.n.v.m.N.h.i.h.i.h.i.l.O O O O O O = O O z.z.z.n.z.n.z.| j.i.[ i.i.] d.d.d.h.d.h.a.",
"f.f.i.l.j.h.z.M.z.b.b.N.v.v.i.h.p.7 ; ; X.<.2.2.2.2.2.<.X.- ; 7 n.l.n.l.p.p.j.| i.i.a.f.g.d.h.d.d.g.",
"p.[ / / l.f.b.m.c.m.z.N.v.j.s.j.Y X < i 1.3.4.4.4.4.4.3.;.a < o Y b.b.l.p.f.f.| i.d.i.i.d.d.h.a.a.g.",
"s.[ _ / j.f.b.n.c.m.v.C.b.s.i.J     k o.4.4.4.4.4.4.4.4.4.+.k     J s.f.p.p.p.p.i.i.` i.d.d.h.d.g.} ",
"p.[ ' _ h.i.z.N.b.N.b.V.n.k.p.J                                   J i.i.i.i.d.f.i.d.a.i.a.a.h.h.g.a.",
"p.] ] _ f.p.b.N.b.N.b.C.b.j.p.A i g p i 1 1 1 i 1 1 i 1 1 1 p g i A i.i.i.i.g.a.i.i.i.i.d.d.v.h.g.d.",
"p.] i./ | s.l.B.B.B.v.l.' S   k +.,.@.+.o.o.o.o.o.o.o.o.o.o.@.,.O.k   D | ] g.) } a.} a.i.g.v.h.i.f.",
"f.i.i._ s.f.x.m.B.V.v.l.' $ ..1                                   1 ..$ ] i.h.d.a.a.{ } d.} x.h.d.g.",
"p.p.i.i.g.g.v.B.B.B.b.l.) $ ..1 . t F J J u t t t t t u J J F t . 1 ..$ | i.{ ' a.h.m.} ^ ^ l.g.g.f.",
"s.i.j.i.| g.x.B.N.B.m.x.` z ..1 @ ! L.I.I.Z.! ! ! ! r.Z.I.I.L.! @ 1 ..$ p.p.d.a.h.h.v.} ^ ~ l.g.f.| ",
"p.s.f.| [ f.v.N.h.} ( { } ( 9 T 0.t.P.I.t.y.y.y.y.y.y.y.t.I.P.t.0.T 9 i.| i.i.d.h.v.b.i.` ^ } } } s.",
"i.] ] ] s.f.l.m.m.| { | | ~ 9 T 0.t.P.I.t.y.y.y.y.y.y.y.t.I.P.t.0.T 9 i.i.i.} f.h.v.b.i.{ ` { { ' s.",
"p.| [ ] f.f.l.m.h.| | | } / 9 T 0.t.P.I.t.y.u.e.u.y.y.y.t.I.P.t.0.T 9 } | i.f.i.g.v.b.p.) ) } { } f.",
"f.s.' ] k.s.l.v.g.a.} | { ( 9 T 0.t.u.u.y.y.y.0.! 0.y.y.y.u.u.t.0.T 9 i.| } g.f.g.z.b.p.' ` f.' ] s.",
"f.i.' | p.a.k.k.k.| | { ` r > N E w.A.S.t.q.5.T T T 5.q.y.S.A.w.E N > r { i.i.d.h.z.c.p.) W } ' { f.",
"d.| ' { i.i.k.k.s.k.| j.Y % ..1 * Q L.I.t.M         . M e.I.L.! * i ..% x.b.a.d.h.c.c.f.i.] h.i.} f.",
"g.i.` } f.a.k.k.| | [ | G.& ..X.k = O - + d X.X.X.X.X.d + - = +  .X...> b.V.] i.l.c.b.p.] ) g.p.k.g.",
"k.g.i.g.| ' k.z.x.| [ [ J.z l k k > , ,   x ;.k k k ;.x   , , > j k l z m.B.] i.f.c.M.p.i.' ] j.f.g.",
"v.l.s.k.| | j.| | g.| | / / e o # X.:.>.  K J.#     H.K   >.:.X.#   e l.m.B.] i.l.z.b.i.[ ] f.d.v.M.",
"k.k.i.k.| | s.p.| | g.| ) / b.H   # l +.  j -.......-.j   O.l #   H f.l.b.B./ ) i.z.n.i.' _ f.f.x.v.",
"b.j.f.j.| g.g.g.| { g.| _ S     &   a k   h o.o.o.o.+.h   k a   &     z.n.m./ W ` l.b.i.' _ p.j.k.x.",
"z.f.i.f.k.k.g.g.| { x.g.Y 7     4         h o.o.o.o.+.h         4     7 n.B.) ' ] h.c.i.' / i.p.x.m.",
"p.j.p.f.j.l.p.p.g.d.g.J.4 %               d o.o.o.o.o.h               % m.V.' ' / k.z.| ( / | | l.b.",
"k.j.j.f.p.l.h.h.g.f.k.2 &.2 . * * +   O O 1 a a a a a 4 O O   + * * . , *.2 } ) ] j.z.j.j.j._ ' i.m.",
"z.j.p.j.f.z.l.l.f.D 7 3 *.2 y 5.6.B o P P V 0 5   5 0 V P P   B 6.5.y 2 *.2 7 ) / s.j.j.j.j.[ [ | b.",
"z.j.j.k.p.l.l.l.f.  s m =.m M N e.7.R V V V w V Z V w w V V R 7.9.N M m =.m s   _ p.z.l.j.j.[ | f.b.",
"l.j.p.f.p.l.z.x.f.# v *.$.$.f % 7.w.8.    O O 6 I 5 O O o   8.w.7.% c %.%.*.v # | k.c.k.f.l.j.j.g.x.",
"k.k.j.l.i.j.l.l.3 *.=.b # X s $.= + +   6 D.D.L o L D.D.5   + + = &.s X O b *.*.3 c.z.k.z.z.z.j.f.x.",
"c.j.s.l.s.l.l.g.: =.=.$.n n f 3 b n n   6 G.G.D.L D.G.G.6   b n b 3 f n n %.=.=.: M.b.z.l.k.z.l.k.b.",
"j.s.s.k.s.k.g.i.: =.=.=.=.=.v % #.*.=.  5 D.F.G.G.G.F.D.6   =.*.#.# v =.=.=.=.*.: n.z.l.z.l.z.l.k.N.",
"k.j.s.j.[ j.j.p.: =.=.=.=.=.=.=.& s =.    o I G.G.G.I o o   =.s & =.=.=.=.=.=.=.: b.z.z.k.z.j.z.k.m.",
"c.j.j.j.[ j.j.[ i., n =.=.=.n 4 b #.=.  - L F.G.G.G.F.L ;   *.#.b 4 n =.=.=.m 3 J.b.M.l.s.z.j.z.l.m.",
"z.j.f.k.[ p.j.j.i.O v &.&.=.c X %.=.=.  6 F.F.F.F.F.F.F.6   =.=.%.X c =.&.*.v O j.b.M.l.z.l.j.z.x.m.",
"c.p.j.k.j.j.[ p.[ _ U     n c X %.=.=.                      =.=.%.  c n     U g.j.m.b.p.p.j.k.B.v.m.",
"z.j.p.k.j.p.j.k.b.} ( U o : &   $.=.=.                      =.=.%.  & : o U f.i.j.n.c.p.j.j.n.B.m.m.",
"c.j.j.j.j.p.z.j.b.{ ~ / o       &.=.=.                      =.=.&.      O n.f.p.p.B.c.z.k.j.V.B.m.b.",
"b.h.p.j.[ j.j.k.n.| / ` ' D                                           S b.n.j.f.l.B.z.b.j.f.C.B.m.m.",
"c.j.p.p.j.j.j.j.n.| _ ' _ ;                                           ; J b.f.f.z.n.l.b.f.f.V.B.M.m.",
"z.j.j.[ j.c.z.z.z.| ' | .                                               o b.p.i.j.c.c.c.l.v.C.B.m.g.",
"z.j.j.p.j.c.c.j.b.| [ | o o                   e i.e                     o b.i.p.j.M.l.c.z.h.C.B.x.{ ",
"j.j.j.[ j.c.n.j.z.s.` s.[ [                 i.i.s.i.^                 C.C.b.l.f.f.c.l.c.b.h.C.b.~ } ",
"j.j.j.p.j.n.c.j.c.k.( k._ |                 p.f.p.{ )                 K.C.M.j.j.j.z.p.b.m.v.N.b.x.| ",
"j.p.p.p.j.c.c.z.z.k.{       w F.G.G.G.G.G   i.s.} ' }   L G.G.G.G.F.q       f.s.k.z.k.v.m.v.m.l.k.{ ",
"j.p.p.z.p.k.z.j.c.f.] - C C L F.G.G.G.w 6   p.a.i.| {   6 w G.G.G.G.L C C - | i.k.l.n.b.m.b.N.h.g.| ",
"j.j.p.p.c.k.c.l.z.| ~ 8 D.G.G.G.G.G.G.      i.f.p.[ i.      G.F.G.G.G.G.F.8 l.f.j.k.z.N.b.B.v.h.i.} ",
"j.p.j.p.B.c.b.k.k.s.' k.O o o . o   o z.l.v.p.p.p.[ | f.f.f.o o o   o o % b.f.f.k.v.v.N.b.M.k.h.f.g.",
"j.p.p.[ M.M.M.z.k.s.{ k.k.k.x.l.k.g.b.v.x.b.a.f.j.[ ] s.k.k.z.l.f.p.i.b.v.g.g.g.k.b.x.b.N.m.l.j.f.} ",
"j.j.p.[ Z.M.n.z.z.| k.| g.| k.k.k.g.c.c.x.b.a.s.k.| ] s.l.z.c.l.j.p.p.s.a.{ x.l.l.b.m.m.m.m.f.| i.d."
};
