/* XPM */
static char *nizrambo[] = {
/* columns rows colors chars-per-pixel */
"39 50 227 2 ",
"   c #2F2521",
".  c #352A22",
"X  c #3B2F25",
"o  c #362E2A",
"O  c #3B3322",
"+  c #3C3433",
"@  c #3E3835",
"#  c #423524",
"$  c #42342B",
"%  c #4B3C2B",
"&  c #473A28",
"*  c #413637",
"=  c #423936",
"-  c #423739",
";  c #453B3B",
":  c #493D3C",
">  c #4C3831",
",  c #513F3C",
"<  c #573B34",
"1  c #6E3129",
"2  c #703D36",
"3  c #4F412B",
"4  c #54432D",
"5  c #4C413E",
"6  c #4F4036",
"7  c #5B4931",
"8  c #55423C",
"9  c #5B423B",
"0  c #5C4D3E",
"q  c #5A4335",
"w  c #5B573C",
"e  c #65443C",
"r  c #644A3C",
"t  c #674839",
"y  c #71483E",
"u  c #6B523D",
"i  c #655138",
"p  c #745A3F",
"a  c #553F41",
"s  c #4D4241",
"d  c #534543",
"f  c #5A4643",
"g  c #544845",
"h  c #5C4A44",
"j  c #554B49",
"k  c #5B4D4A",
"l  c #5E514C",
"z  c #5D5250",
"x  c #634744",
"c  c #634B44",
"v  c #6C4C44",
"b  c #6A4E4A",
"n  c #664B4A",
"m  c #714545",
"M  c #7B4D43",
"N  c #724E4A",
"B  c #764B48",
"V  c #6F5346",
"C  c #63524D",
"Z  c #6B524B",
"A  c #645845",
"S  c #735245",
"D  c #7B5345",
"F  c #745C44",
"G  c #73544B",
"H  c #7A554B",
"J  c #76594E",
"K  c #7B5C4D",
"L  c #785E40",
"P  c #635552",
"I  c #6B5752",
"U  c #6D5B55",
"Y  c #6A5B5A",
"T  c #655955",
"R  c #755552",
"E  c #7A5552",
"W  c #745A53",
"Q  c #7B5E54",
"!  c #775F5A",
"~  c #7C5D5C",
"^  c #6E625E",
"/  c #7C6155",
"(  c #73635D",
")  c #7D645B",
"_  c #706151",
"`  c #7D6A50",
"'  c #746561",
"]  c #7C6561",
"[  c #7D6C65",
"{  c #7E6E68",
"}  c #7F7069",
"|  c #854539",
" . c #8C4D42",
".. c #834F41",
"X. c #855C4D",
"o. c #875B49",
"O. c #835D54",
"+. c #855958",
"@. c #905B4C",
"#. c #8A634C",
"$. c #86694C",
"%. c #8B694E",
"&. c #836649",
"*. c #856353",
"=. c #8B6356",
"-. c #8B6B54",
";. c #84635C",
":. c #8E665A",
">. c #8D6C5B",
",. c #826D5D",
"<. c #926455",
"1. c #94665A",
"2. c #926B5B",
"3. c #9B6C5C",
"4. c #926C51",
"5. c #8F715A",
"6. c #937254",
"7. c #9A7255",
"8. c #92715D",
"9. c #9C7A5B",
"0. c #9D715C",
"q. c #916A4E",
"w. c #A16E5D",
"e. c #A27E5C",
"r. c #A0725F",
"t. c #8D6764",
"y. c #846B64",
"u. c #8C6A62",
"i. c #8B6D6A",
"p. c #836B66",
"a. c #936C63",
"s. c #9B6E61",
"d. c #946E6B",
"f. c #996E68",
"g. c #8B7266",
"h. c #82716B",
"j. c #8C736D",
"k. c #877462",
"l. c #957362",
"z. c #9B7364",
"x. c #95746B",
"c. c #9D736A",
"v. c #9A7B67",
"b. c #857671",
"n. c #887771",
"m. c #8C7B75",
"M. c #8D7E79",
"N. c #967C72",
"B. c #9C7B73",
"V. c #917F79",
"C. c #9A7572",
"Z. c #A06F62",
"A. c #A37464",
"S. c #A47B65",
"D. c #A57B6B",
"F. c #AB7C6C",
"G. c #A6756A",
"H. c #B27C6F",
"J. c #A57B74",
"K. c #AB7C74",
"L. c #A67E7B",
"P. c #B17E74",
"I. c #A3825D",
"U. c #92817B",
"Y. c #A58265",
"T. c #A88564",
"R. c #A9836A",
"E. c #A8856C",
"W. c #B2836F",
"Q. c #A38377",
"!. c #AC8375",
"~. c #AE8C74",
"^. c #A3827B",
"/. c #AB837B",
"(. c #A0897A",
"). c #B48475",
"_. c #B5847B",
"`. c #B58A7D",
"'. c #BD8B7B",
"]. c #BA8875",
"[. c #C2917D",
"{. c #AC8980",
"}. c #A98581",
"|. c #B48781",
" X c #B48B84",
".X c #BB8C83",
"XX c #BC8D88",
"oX c #B08F8A",
"OX c #BD9184",
"+X c #B4948B",
"@X c #BB938C",
"#X c #B8958B",
"$X c #BE9B92",
"%X c #BE9491",
"&X c #C28F86",
"*X c #C49385",
"=X c #C99782",
"-X c #C79987",
";X c #CC9A85",
":X c #C3948B",
">X c #C69A8B",
",X c #CB9D8D",
"<X c #D09C88",
"1X c #C49692",
"2X c #C59B93",
"3X c #CB9E93",
"4X c #CA9E99",
"5X c #C49E99",
"6X c #D09F92",
"7X c #D4A18E",
"8X c #C4A097",
"9X c #CEA294",
"0X c #C6A198",
"qX c #CCA39B",
"wX c #CDA89F",
"eX c #D2A393",
"rX c #D2A59B",
"tX c #D4AA9E",
"yX c #DBAC9B",
"uX c #CEA8A0",
"iX c #D5ABA2",
"pX c #DEADA3",
"aX c #D9B3A8",
"sX c #E4BAB3",
"dX c #EFC3BC",
"fX c #F0C4BD",
"gX c None",
/* pixels */
"gXgXgXgXgXgXgXgXgXgXgXgXgXgXgXgXgXgXgXgXgXgXgXgXgXgXgXgXgXgXgXgXgXgXgXgXgXgXgX",
"gXgXgXgXgXgXgXgXgXgXgXgXgXgXgXgXgXgXgXgXgXgXgXgXgXgXgXgXgXgXgXgXgXgXgXgXgXgXgX",
"gXgXgXgXgXgXgXgXgXgXgXgX[ } { ( ^ P C k d @ gXgXgXgXgXgXgXgXgXgXgXgXgXgXgXgXgX",
"gXgXgXgXgXgXgXgXgXgX' b.}.M.{ ^ ( _ P l l g 5 g T P gXgXgXgXgXgXgXgXgXgXgXgXgX",
"gXgXgXgXgXgXgXgXgX{ n.h.} M.{ z l U z g d d d P } } ( l gXgXgXgXgXgXgXgXgXgXgX",
"gXgXgXgXgXgXgX^ h.b.{ ' z j T j : g k s @ 5 d ' m.n.( U d gXgXgXgXgXgXgXgXgXgX",
"gXgXgXgXgXgXY m.b.[ Y z z s @ s : @ a : @ = d ' m.} U l g gXgXgXgXgXgXgXgXgXgX",
"gXgXgXgXgX^ U.U.' z z j s a a - : @ - s : 5 k U [ _ h 8 g = gXgXgXgXgXgXgXgXgX",
"gXgXgXgXT b.M.b.' Y Y Y k a @ @ * : h n W Q W Z Z C d ; 5 d gXgXgXgXgXgXgXgXgX",
"gXgXgXgX^ ! Y ' Y z z g a : - @ ; d b :.z.G.z.2.G d 5 : ; j j gXgXgXgXgXgXgXgX",
"gXgXgXI ( P k z j ; a @ * * - : , x *.D.].'.[.[.G.W d : 5 d z s gXgXgXgXgXgXgX",
"gXgXgXP ! k ; s j a + + + * - : 8 G l.).=X;X<X7X=XF.K : 5 s j z gXgXgXgXgXgXgX",
"gXgXgXk P g - - s s d : ; * : , Z a.OX-X7X7X7XyX7X[.F.G s s s j ; gXgXgXgXgXgX",
"gXgXgXg k d : : g s d d f f h b ;.!.wXtX7X<X7X7X7X<X[.v._ C j g s gXgXgXgXgXgX",
"gXgXgXj k d d h R n x x c G ;.t.c.`.9XtXyXyX7X7X7X[.=X`.8.U j s s gXgXgXgXgXgX",
"gXgXgXd h C C ;.x.c.z.a.t.a.c.G.D.`.,XtX<X[.[.[.7X<X[.'.S.Z k s 5 @ gXgXgXgXgX",
"gXgXgXs k Z Q D.OX>X:X.X/.J.G.K.).[..XP.P.*XeX3X=X-X'.).0.G f 5 5 @ gXgXgXgXgX",
"gXgXgX; g k g.*X,X,X,X3X*X`..X`.P.G.G.'.eX,X'.=X9X=X].D.A.*.C 8 5 = gXgXgXgXgX",
"gXgXgX= s C /.9X,X3X9X9X4X*X.XK.K.'.&X&X*X.X,XaXqX`.~.).A.2.K h 5 ; gXgXgXgXgX",
"gXgXgX* 5 ( *X,X,XeX9XqX4X:X*X`.&X&X[.&X>X>XaX0X>.x Z >.z.l.-.G ; ; c ..gXgXgX",
"gXgXgX+ 5 p.>XeXeXeXrXrX9XqX3X&X&X:X:X:X&X3X@X;., , C Q >.l.l.*.6 @ v  .gXgXgX",
"gXgXgXgXs g.>X9XeXrXtXtXtXrX4X,X,X.XP._.K.c.Z 6 0 Q -.u.l.l.8.g.h @ 9 | 1 gXgX",
"gXgXgXgX5 y.>X3XeXrXtXtXrX4X2X*X&XP.K.c.O.x 9 Z S v F -.v.v.v.v.J = v  .1 gXgX",
"gXgXgXgX: [ OX3X9X9XqXqX4X1XXXK.|.K.f.;.G G Z 9 > 9 c V -.l.0.v.-., S @.y gXgX",
"gXgXgXgX: U `.:X4X2X4XqXqX4X|.t.J.A.:.*.K H n d + g ) S *.>.l.v.v.c t | y gXgX",
"gXgXgXgX; z Q.:X2X5X#XoX}.x.+.N t.f.t.=.K v n Y , C *.*.-.>.v.D.!./ < M gXgXgX",
"gXgXgXgX+ d x.:X%XB.] I f a n G t.L.K.2.H v m R E *.>.>.>.8.S.D.~.>.e X.gXgXgX",
"gXgXgXgXgX= ) oXC.~ I n f x b E i.5XrXD.X.H H H O.=.2.2.>.z.D.E.~.8.D l.gXgXgX",
"gXgXgXgXgXo P U.d.j.] a - a n R x.iXsX@X3.O.X.O.*.:.:.2.2.G.D.E.~.5.$.5.gXgXgX",
"gXgXgXgXgXgXd B.V.j.Y Y a n N ~ C.pXfX6XA.3.1.<.=.=.:.1.0.S.D.E.~.` -.gXgXgXgX",
"gXgXgXgXgXgX: j.}.h.~ i.t.t.;.d.}.rXfXpX'.3.1.1.1.1.1.s.z.A.S.Y.E.F F gXgXgXgX",
"gXgXgXgXgXgXgX] +X}.C.C.C.d.C.C. XrXdXpX;XH.1.<.Z.Z.Z.Z.A.S.S.R.Y.i 3 gXgXgXgX",
"gXgXgXgXgXgXgXW #X5X$X{.^.L.L.}.XX4XsXpX&X&XF.<.w.Z.A.A.G.S.Y.R.e.0 gXgXgXgXgX",
"gXgXgXgXgXgXgXgX}.0XwX8X%X@X%X%X1X4X6X:X].P.W.3.3.A.A.A.S.Y.Y.Y.6.7 gXgXgXgXgX",
"gXgXgXgXgXgXgXgXN.$XwXuXqXqXuX1X:X1X.XK.A.3.@.o.<.r.w.w.S.Y.Y.I.$.4 gXgXgXgXgX",
"gXgXgXgXgXgXgXgXy.+X8XqXuXqX5X&XXXK.a.s.1.M y M @.w.r.w.9.Y.9.%.F 3 gXgXgXgXgX",
"gXgXgXgXgXgXgXgXgXU.#X8X5X5X1XXX1XK.E E G < < < m X.-.-.6.9.-.p i & gXgXgXgXgX",
"gXgXgXgXgXgXgXgXgX` U.$X5X1X XXX1XL.I , , , > > 8 r V K $.6.$.i 7 O gXgXgXgXgX",
"gXgXgXgXgXgXgXgXgXgX[ +X$X@XL.|./.>.Z < N H e e r e u F $.-.L 7 3 O gXgXgXgXgX",
"gXgXgXgXgXgXgXgXgXgXw N.+X{.x.i.;.n v x N m y y y o.%.%.6.9.L 4 O gXgXgXgXgXgX",
"gXgXgXgXgXgXgXgXgXgXgXA U.(.l./ c n m m m m v M q.7.7.e.I.I.%.% # gXgXgXgXgXgX",
"gXgXgXgXgXgXgXgXgXgXgXgXA g.x./ Q u.+.+.B B M o.q.q.7.e.T.I.p % # gXgXgXgXgXgX",
"gXgXgXgXgXgXgXgXgXgXgXgXgXA ) k.l.x.l.O.v e e M #.q.7.e.I.&.4 % gXgXgXgXgXgXgX",
"gXgXgXgXgXgXgXgXgXgXgXgXgXgXA ,.N.N.x.;.E N N H @.q.7.e.q.7 & 4 gXgXgXgXgXgXgX",
"gXgXgXgXgXgXgXgXgXgXgXgXgXgXgXA k.(.Q.x.t.+.G B ..#.&.%.p % % gXgXgXgXgXgXgXgX",
"gXgXgXgXgXgXgXgXgXgXgXgXgXgXgXgX0 k.Q.L.d.H 9 < 9 r i t q % gXgXgXgXgXgXgXgXgX",
"gXgXgXgXgXgXgXgXgXgXgXgXgXgXgXgXgX0 ;.g.Q h $ $ $ & & & # gXgXgXgXgXgXgXgXgXgX",
"gXgXgXgXgXgXgXgXgXgXgXgXgXgXgXgXgX% 8 h 9 $ . . . X X . gXgXgXgXgXgXgXgXgXgXgX",
"gXgXgXgXgXgXgXgXgXgXgXgXgXgXgXgXgXgXX $ + X .     gXgXgXgXgXgXgXgXgXgXgXgXgXgX",
"gXgXgXgXgXgXgXgXgXgXgXgXgXgXgXgXgXgXgXgXgXgXgXgXgXgXgXgXgXgXgXgXgXgXgXgXgXgXgX"
};
