/* XPM */
static char *front[] = {
/* columns rows colors chars-per-pixel */
"50 50 6 1 ",
"  c black",
". c #063B0D",
"X c #096115",
"o c #27CBB2",
"O c #8F8181",
"+ c white",
/* pixels */
"OOOOOOOOOOOOO OOOOOOOOOOOOOO++OO OOOOOOOOOOOOOOOOO",
"OOOOOO++OOOOO OOOO+++++++OO+++OO OOO+++++OOOOOOOOO",
"OOOO++++++OOO OOOOOOOOOOOOO++OOO OOOOOOOOOOOO++OOO",
"OO++OOOOO+OOO OOOOOO          OO OOOOOO+OOOOOOO+OO",
"OOOOOOOO+OOOO OOO   XXXXXXXXXX   OOOOOOOO+++++OOOO",
"OOOOOOOOOOOOO    XXXXXXXXXXXXXXXX   OOOOOOOOOOOOOO",
"              XXXXXXXXXXXXXXXXXXXXXX              ",
"             XXXXXXXXXXXXXXXXXXXXXXXX             ",
"OOOO+OOO++ XXXXXXXXXXXXXXXXXXXXXXXXXXXX OOOOO OOOO",
"OOOOOOOOO XXXXXXXXXXXXXXXXXXXXXXXXXXXXXX OOOO OOO+",
"OOOOO+OO XXXXXXXXXXXXXXXXXXXXXXXXXXXXXXXX OOO OOO+",
"OOOOOO+ XXXXXXXXXXXXXXXXXXXXXXXXXXXXXXXXXX OO OOOO",
"OOOOOO XXXXXXXXXXXXXXX.......XXXXXXXXXXXXXX O+OOOO",
"OOOOOO XXXXXXXXXX..XXXXXXXXXXXXX..XXXXXXXXX O OOOO",
"       XXXXXXXXXXX...............XXXXXXXXXX       ",
"        XXXXXXXXXXXXXXXXXXXXXXXXXXXXXXXXXX        ",
"OOOO      XXXXXXXXXXXXXXXXXXXXXXXXXXXXXX      OO+O",
"OOOO        XXXXXXXXXXXXXXXXXXXXXXXXXX        OO+O",
"OOO              XXXXXXXXXXXXXXXX              OOO",
"O+O                   XXXXXX                   OOO",
"OOO                                            OOO",
"OO       ++                            ++       OO",
"         ++++                        ++++         ",
"         +  +++++++            +++++++  +         ",
"OO       +        ++++      ++++        +       O ",
"OO        +          +      +          +        +O",
"OO        ++     oo  +      +  oo     ++        OO",
"OO         ++    oo  +      +  oo    ++         OO",
"OO          +++      +      +      +++          OO",
"OO            ++++++++      ++++++++            OO",
"OO XXX            ++          ++            XXX OO",
"    XXXXX                                XXXXX    ",
"    XX...XX                            XXX...X    ",
"OO+ XXXX...XXXX                    XXXXX...XXX O O",
"OOO+ XXXXX...XXXXXX            XXX......XXXXX OO O",
"OOO+ XXXXXXX.....XXXX.......XXXXXXXXXXXXXXXXX OO O",
"OOOO XXXXXXXXXXXXXXX..XXXXX..XXXXXXXXXXXXXXXX OO O",
"OOO+O XXXXXXXXXXXXXXXXXXXXXXXXXXXXXXXXXXXXXX OO+ O",
"OOO+OO XXXXXXXX   XXXXXXXXXXXXXX   XXXXXXXX OOO+ O",
"OOOOOO XXXXXXXX       XXXXXX     + XXXXXXXX OOOO O",
"OOOOOOO XXXXXXX + ++         + +++ XXXXXXX OOOOO O",
"         XXXXXX       ++ ++++      XXXXXX         ",
"    +     XXXXXX ++ +         ++  XXXXXX          ",
"OOOOOOOOOO XXXXXX + + +  ++  ++  XXXXXX O+OOOO OOO",
"OOOO+OOOOOO  XXXXX    ++ ++ +   XXXXX  OOOOOOO OOO",
"OOOO+OOOOOO O XXXXXXX        XXXXXXX OOOOOOOOO OOO",
"OOOOOO+OOOO O+   XXXXXXX...XXXXXX   OOOOOOOOOO OOO",
"OOOOOO+OOOO OO+OO   XXXX...XXX   ++O+++OOOOOOO OOO",
"OOOO++++OOO O++OOOOO           OOOOOO+OO+OOOOO OOO",
"OOOOOOOOOOO OOOOOOOOOOOOOOOOOO OOOOOOOOOOOOOOO OOO"
};
