/* XPM */
static char *coin_bag[] = {
/* columns rows colors chars-per-pixel */
"50 50 215 2 ",
"   c #2B1402",
".  c #2D1806",
"X  c #2E1508",
"o  c #331302",
"O  c #3C1400",
"+  c #321901",
"@  c #3B1D00",
"#  c #351709",
"$  c #3B2404",
"%  c #411806",
"&  c #432302",
"*  c #4D2603",
"=  c #4F2C00",
"-  c #542500",
";  c #522B03",
":  c #582C08",
">  c #4F350A",
",  c #533004",
"<  c #5B3502",
"1  c #5A340A",
"2  c #5D3B08",
"3  c #5A2D10",
"4  c #622F01",
"5  c #633402",
"6  c #6A3401",
"7  c #643A0A",
"8  c #7A3E03",
"9  c #653E11",
"0  c #683F10",
"q  c #483928",
"w  c #523F33",
"e  c #5C4501",
"r  c #66430B",
"t  c #67460A",
"y  c #6C430E",
"u  c #764706",
"i  c #694D12",
"p  c #724914",
"a  c #6A4628",
"s  c #813F00",
"d  c #824300",
"f  c #854606",
"g  c #8C4504",
"h  c #974B06",
"j  c #8D5401",
"k  c #935502",
"l  c #9B5800",
"z  c #9A590C",
"x  c #915214",
"c  c #A75808",
"v  c #BB5600",
"b  c #986609",
"n  c #9A751F",
"m  c #A56503",
"M  c #AF6C00",
"N  c #B46C01",
"B  c #BA6A07",
"V  c #B77000",
"C  c #BD7501",
"Z  c #AB6617",
"A  c #9E7226",
"S  c #9B673E",
"D  c #B0762C",
"F  c #D76904",
"G  c #D26B0B",
"H  c #C27704",
"J  c #C86D16",
"K  c #D46E13",
"L  c #D86F15",
"P  c #C87215",
"I  c #D67214",
"U  c #D67716",
"Y  c #EA750B",
"T  c #F27B04",
"R  c #F27A0B",
"E  c #E26A10",
"W  c #E47513",
"Q  c #C47126",
"!  c #D17C24",
"~  c #9C6943",
"^  c #9F6F48",
"/  c #A26E44",
"(  c #A06E4A",
")  c #A57147",
"_  c #A97446",
"`  c #A57249",
"'  c #AA764B",
"]  c #AD7A4E",
"[  c #B17B4E",
"{  c #A97651",
"}  c #AD7C51",
"|  c #B27E52",
" . c #96786C",
".. c #BB860A",
"X. c #BB8311",
"o. c #BC972A",
"O. c #B78F3C",
"+. c #AE9338",
"@. c #B39836",
"#. c #DB8108",
"$. c #C88B13",
"%. c #D9851A",
"&. c #DB9511",
"*. c #E58D00",
"=. c #E98906",
"-. c #F38203",
";. c #F48A03",
":. c #F88B09",
">. c #EB9303",
",. c #E89A07",
"<. c #E4910C",
"1. c #F69402",
"2. c #FA9502",
"3. c #F49B02",
"4. c #FE9E03",
"5. c #FB9009",
"6. c #F99A0B",
"7. c #E18010",
"8. c #F38114",
"9. c #EF9312",
"0. c #F89314",
"q. c #EBAE0F",
"w. c #F3A503",
"e. c #FEA204",
"r. c #FBA905",
"t. c #FDA40B",
"y. c #FEAC0B",
"u. c #FDB20E",
"i. c #FFB90E",
"p. c #E6AA14",
"a. c #E3A41B",
"s. c #FEA412",
"d. c #FCAC16",
"f. c #FCAC19",
"g. c #FEB513",
"h. c #F4BB13",
"j. c #FFBE16",
"k. c #FBB61B",
"l. c #FFBD1A",
"z. c #C29C3A",
"x. c #C3A33C",
"c. c #EEAE22",
"v. c #F9B925",
"b. c #FEBD24",
"n. c #FEC016",
"m. c #FDC31B",
"M. c #FFC81F",
"N. c #FEC322",
"B. c #FECB23",
"V. c #F6C428",
"C. c #FECD2B",
"Z. c #FED125",
"A. c #FDD12C",
"S. c #FFDB2F",
"D. c #FDC936",
"F. c #FDDC33",
"G. c #F5D639",
"H. c #FFD13B",
"J. c #FFE134",
"K. c #FFE43B",
"L. c #FDEA3D",
"P. c #AB9A41",
"I. c #B39945",
"U. c #B58255",
"Y. c #B98456",
"T. c #B6855A",
"R. c #BA8659",
"E. c #B7885B",
"W. c #BC8A5C",
"Q. c #B8AA47",
"!. c #BE8D61",
"~. c #BF9062",
"^. c #C18C5E",
"/. c #C2B056",
"(. c #C28E61",
"). c #C49264",
"_. c #C99466",
"`. c #C69669",
"'. c #CA9769",
"]. c #C7986A",
"[. c #CC9A6C",
"{. c #D19D6F",
"}. c #CE9E71",
"|. c #D19F71",
" X c #CFA073",
".X c #D2A274",
"XX c #D5A67A",
"oX c #D9A678",
"OX c #D7A97C",
"+X c #D9AA7D",
"@X c #DFC554",
"#X c #FFD644",
"$X c #E9C753",
"%X c #F4D157",
"&X c #FFDB54",
"*X c #F1D259",
"=X c #FFDE5D",
"-X c #FFEF43",
";X c #FFF244",
":X c #F8E75B",
">X c #FEE15E",
",X c #FAF658",
"<X c #F1DF64",
"1X c #F7E765",
"2X c #FEE361",
"3X c #F4E56A",
"4X c #FBEB6B",
"5X c #FBF867",
"6X c #EFE673",
"7X c #EDEA76",
"8X c #FBED74",
"9X c #F8F676",
"0X c #F4FB73",
"qX c #F4FC7D",
"wX c #DCAD82",
/* pixels */
"(.W.~.`.}.].).E.).'.[.]. X XE.'.].W.E.).^.(.).(.^.Y.`.].~. X).).{.(.{._.'.{.W.Y.R.] _ U.!.E.~.~.!.T.",
"W.W.!.).].).).(.).[.[.[. X XE.`.Y.E.E.).).W.Y.W.(.Y.].].].[._.).{.(.{._.^.Y.Y.U.Y.] { Y.E.E.~.~.!.T.",
"W.W.!.).~.).(.{._.[.]. X X~.U.~.U.!.Y.).Y.W.Y.E.).E.~.)._._._.).{._.{._.| ^.U.[ U.U.] E.E.E.~.E.~.T.",
"W.W.U.).(.~._.{._.[.[. X].).T.~.Y.~.!.~.(.E.U.E.).Y.~.~.)._._._.{._.{.(.U.Y.^.U.Y.U.U.E.!.E.~.T.T.!.",
"Y.U._ S (.W.[.{.'. X_. X'.^.R.^.E.~.~.~.W.(.U.Y.~.W.].].`.~._._.{._.[.(.Y.W.W.| U.E.` E.E.E.~.T.} !.",
"Y.U._ S (.E.[.{.'. X].oX[.R.U.R.E.E.~.(.^._.U.U.~.E.).~.~.).).).'.W.W.W.Y.Y.Y.U.U.U.U.U.E.E.~.~.~.} ",
"Y.] _ _ (.U.].{.[. X].oX|.(.T.| W.E.~.(.^.).U.Y.~.U.`.~.~.]._.).].Y.U.Y.U.U.W.W.U.E.U.U.E.E.~.~.~.!.",
"Y.] ] _ W.Y.[. X[. X[.OX[.(.T.T.W.~.(.(.W.$ < < < < + !.!._._._.].E.U.T.} U.!.E.E.U.U.{ E.E.~.~.T.!.",
"Y.U.[ S | R.)..X.X.X[.).' [ [.|. X).> ; , 5 e.3.w.w.O X X o ]._.{.E.~.Y.U.] E.) U.T.} T.T.!.].!.| T.",
"R.U.R._ R.R.`..X.X.X].).' ` '.|.5 N &.u.u.u.u.j.j.g.d.g.y.2.b u {.E.E.Y.] U.~.E.T.T.{ { !.{ ).).!.!.",
"Y.R.U.Y.(.!.`. XXX X[.).` ' ).5 k s.N.m.n.C.n.n.l.l.n.m.g.t.e.H 5 $ W.W.] U.} { T.!.[.U.~ ^ ).!.(.!.",
"R.Y.R.U.| !.`.XX X.X}.`.' / - q.j.n.B.h.:.! 8.U U #.U 8.n.n.n.g.i.&.  q Y.Y.E.T.!.~.].} ( ~ ).W.T.| ",
"Y.W.W.U.] W.]. X~.} ` ] { < ..j.j.l.a.9.U p g E Y c p B 0.%.d.j.n.u.N $ ] U.Y.E.~.].].U.` ^ { | [ T.",
"Y.' ] ] R.W.).}.[.} ' a 1 C.0Xj.g.J I Q < l.%Xg c z.9Xe P T T =.m.m.m.w.O w U.E.!.].].Y.{ ` { [ { W.",
"Y.] ] ] E.W.).}.).| } * ..m.N.d.W L I W 6 l.%Xg c z.9Xt 3.4.4.;.#X-X5XN.N # (.Y.W.].[.R.` ` } ` | W.",
"E.W.' [ (.R.).].!.T.5 @XC.l.d.L K c c z - l.%X8 g z.0Xt Z d.n.u.;.c.-X-Xn.=.% E.!._.[.Y.` ` !.' ' R.",
"T.Y.] ] R.T.!.).W.U.d h.n.f.W J L 5 5 7 < N.%X1 < x.4Xi y 7.j.j.r.;.K.L.J.j.5 R.(._.'.R.) S } } { T.",
"E.| ' } Y.Y.W.(.W.j $.L.K.Y <.I K X.H.=X=X=X=X=X=X>X=X4X1XP.B t.n.u.e.B.j.j.H u (.].'.R.| ] ).U.| !.",
"!.T.' { T.T.(.^.R.N l.-XD.;.;.U P X.C.=X2X>X=X<X>X2X2X=X2X3XS H r.y.y.y.n.n.y.m (._.{.Y.| ) (.T.(.!.",
").W.U.E.U.' ).(., 3.d.;Xl.R 2.8.,.< r c.&X2X6Xr y y y %X=X=X<XO.2.4.4.4.m.j.r.3.. ].{.Y.[ ' } (.!.R.",
"].(.R.(.| [ R.Y., B.K.k.5.2.-.5.T >.k p.&X2X7Xf *.>.>.p >X=X4XQ.1.4.4.4.y.n.h.u.X _.[.U.[ ] E.E.`.}.",
"(.).Y.^.U.U.R.Y., A.;XL.j.4.e.e.e.e.l p.&X2X7Xs #.*.*.r =X2X1XI.>.4.4.4.y.j.j.u.X '.{.U._ _ R.W._.}.",
"'.(.W.W.R.W.W.- = Z.;Xl.e.4.4.4.4.4.l p.&X2X6X3 1 3 : $X=X<XI.h R 5.T 2.0.j.j.u.    ].U.] ' Y.W.(.`.",
"_.W.U.W.(.(.!.; = Z.;XF.u.e.4.4.e.4.l p.&X=X=X=X=X=X=X=X2X*XA G ;.:.1.-.s.j.j.u.  + '.Y._ / U.R.].[.",
"R.^.Y.Y.^.(.Y.< = Z.;XA.k.4.4.4.r.u.b p.&X2X9X@.+.+.+.%X=X>X@XD E R T :.t.l.l.u.  o (.| _ / | | (.}.",
"(.^.^.^.Y.).(.; = n.J.M.y.4.u.u.u.n.b p.&X2X7X8 N H H n =X=X>X$Xj F Y -.6.l.j.u.  O _.(.R.^.` ' U.}.",
").^.^.^.R.`.).; = M.S.e.4.g.n.n.n.n.b p.&X2X7Xf ;.4.4.<.u >X>X1X7 c Y T 0.n.l.u.    R._.(.(.[ [ | '.",
"'.^.Y.(.W.).).)., i.H.v.e.j.j.n.l.l.b p.&X>X7Xx 1.4.t.w.t >X>X4X2 v Q Y 0.n.n.g.o | _._.(.R.[ [ T.}.",
"_.^.Y.^.U.)._._., H.2X:Xb.j.j.j.h.5 0 p.&X2X7X0 9 9 0 r >X>X>X3Xp c W Y r.g.i.u.. (.].).R.).(.^.(.`.",
"(.^.W.(.U.^.(.).).1.v.V.y.e.j.n.h.X.H.2X=X=X=X=X=X=X=X>X>X>X<XP.Z F J R e.e.y.1.o [._.^._._._.^.W.`.",
"'.^.R._.R.).`.!.U.N y.n.l.t.g.j.h.X.H.<X=X&X=X<X=X=X=X4X4X3XA z I I K 4.e.u.e.m ] {.[.).(.).].(.(.[.",
"^.R.R.(.R.).!.| W.j $.g.j.y.e.y.q.b $.z.O.#X=Xo.O.$X1X/.Q.I.z I I U U 4.4.e.C u W.{.)._._._._.).(. X",
"(.^.R.^.[ ^.^.U.^. .d g.h.K.g.e.t.6.6.3.5 l.*Xg d x.9X0 I D L L I <.t.g.g.g.5 ' W.[._._.(._.^.).!.}.",
"'.^.^.^.[ ^.^.[ | [ 5 ,.u.Z.J.y.e.4.4.4.6 j.%Xg c @.9Xr U L K L <.4.>XV.#X*.% R.^.[.{.).R.).^.'.`.}.",
"'.^.W.(.[ ^.^.^.[ ) _ 3 C n.m.J.u.e.e.4.6 n.$Xk m O.9Xp T 4.e.e.i.1XV.0XN o W.W.(.{.{.).).).^.'.`.[.",
"[.R.R.(.^.Y.[ Y.Y.) _ a 2 w.5XC.K.F.h.e.3.: 0 3.w.z 1 <.4.e.h.G.0XG.7Xf.@ .XR.(.(.[.[.R.^.^.(..X[.}.",
"_.^.Y.^.^.Y.^.^.[.{ ~ ` ] < V >X,X,X;X;XN.l.m.l.v.b.b.D.C.#X0XqXqX1XM @ ].{.W.U.(.{.[.Y.^.^.{..X}.}.",
"[.^.^.^.^.Y._.^.[.| ~ / [ [ - c.8X0X,X;X-X-X-X-X;X-X;X5X,X5X,X0X8Xa.  w [.{.E.Y.Y.{.[.).^.^.oX|.}.[.",
"_.W.^.^.[ ^.^.^.{.| / ` ] [ E.4 d $.b.L.-X-X;X;X-X-X;X;X,X:Xv...5 & ^.+X{.[.^.W.(.|._.[.(.W.oX.X}.}.",
"[.^.Y.Y.^.^.^.^.[.| ) ' _ ] R.(.).j B V.C.C.A.;X;XF.C.A.A.$Xb u `.U.).+X{.[.W.W.'.{._.[.E.E.oXXX|.|.",
"'.^.Y.Y.^._.'.(.'.| ' | ' ' ^.^._.'.^.: : 5 2.2.3.3.o X X # {.{.).W.).wX.X].T.R.^.[._.[.~.].+X.X}.!.",
"_.^.^.[ ^.{.'.^._.R.{ | [ [ ^.^.(.'.^.[ ] & < < < < + !.R.Y.oX'.(.(.].wXoX[.U.Y.^.{.).[.).(.+X X`.{ ",
"_.^.Y.Y.^._.{.^._.R.` R.[ [ ^.^.(.'.^.^.).).Y.U.R.E.^ E.W.).{._._.(.).+XXX[.).R.Y.'.(.[.].`.+X].~ | ",
"^.Y.^.Y.^.{.'.^.'.(./ (.[ [ ^.Y.{.{.^.^.^.^.Y.W.U.{ ) } ^.W._.'._.W.W.wXOX.XW.^.(.'.W.'.[.]. X[.).} ",
"^.Y.^.Y.^.{._._._.(.{ (.Y.R._.(._._.^.(.)._.U.R.} ' } E.(.R.]._.'.Y.Y.+XoX XE.Y.(._.(.]. X].[.].(.} ",
"^.Y.Y.^.| (._.^.'.W.' !.Y.^._._._.'.^.^._.].Y.W.U.| { U.(.(.]._.^.U.E.+X+X[.U.I.(._.[.[.}.}.[.(.W.| ",
"_.Y.Y.^.'._.'._._.| ~ !.T.R._.{.).(.].[.).[.U.R.U.[ U.R.E.(.'.).!.Y.E.XX+X X^.~.~.^.`.{.{.|.'.W.T.} ",
"^.Y.^.Y.|.'.'.(.(.T.{ (.(.^._.'.[.(.).).).'.Y.Y.Y.] | W.R.!._._.~.U.U.XX+X[.W.W.~._.].}.}.|.).(.!.E.",
"^.Y.Y.[ oX{.{._.^.Y.' R.R._.)._.(.| }.`.`.[.| (.^.] [ | ).(._.).E.Y.Y.].].!.!.W.).].].[..X}.).^.E.U.",
"^.Y.Y.[ oXoX{._._.Y.^.R.(.| (.(._.(.`.[.`.}.T.T.).| [ R.).).'._.W.R.R.R.E.{ `.).).[.[. X X[.W.| U.E."
};
