/* XPM */
static char *coin_bag[] = {
/* columns rows colors chars-per-pixel */
"50 50 7 1 ",
"  c black",
". c #063B0D",
"X c #C20707",
"o c #B14C10",
"O c #DCC00F",
"+ c #8F8181",
"@ c white",
/* pixels */
"+++++++++++++ ++++++++++++++@@++ +++++++++++++++++",
"++++++@@+++++ ++++@@@@@@@++@@@++ +++@@@@@+++++++++",
"++++@@@@@@+++ +++++++++++++@@+++ ++++++++++++@@+++",
"++@@+++++@+++ ++++++++++  ++++++ ++++++@+++++++@++",
"++++++++@++++ +++++++++ OO +++++ ++++++++@@@@@++++",
"+++++++++++++ +++++++++ OO +++++ +++++++++++++++++",
"                       OOOO                       ",
"                  @@@  OOOO                       ",
"++++@+++@@@@@@@@+++++ OOOOOO ++++++++++++++++ ++++",
"++++++++++++++++++++ OO.OOOOO @@@@++++@++++++ +++@",
"+++++@++++++++++++++ OO.....O ++++++@@@++++++ +++@",
"++++++@@@@@@@@@@+++  OOOOOO.O  @@@@@+++++++++ ++++",
"+++++++++++++++++++ OOOOOOOOOO ++++++++++++++@++++",
"++++++++++++++++++ OOO   OOOOOO +++++++++++++ ++++",
"                   OO XX OOOOOO         @         ",
"                  OO XXXX OOOOOO                  ",
"++++@++++ ++++++@ O  XX@X OOOOOO +++ +++++++++++@+",
"+++++++++ ++++++ OO XXXX  OOOOOOO ++ +++++++++++@+",
"++++@++++ ++++++ OO X@XX OOOOO    ++ ++++++@++++++",
"+@++++@++ ++@++ OOO  XXX OOOO  X@  + +++++@+++++++",
"+++++++++ ++++  OOOO    OOOOO XXX    +++++++++++++",
"+++++++++ ++++ OOOOOOOOOOOOOO  XX O  +++++++++++++",
"               OOOOOOOOOOOO.OO    O               ",
"            @ O    OOOO.....OOOOOOOO              ",
"+++++++++++@+ O XX OOOOOOOOOOOOOOOOO ++++++ +++@+ ",
"++++++++++@@ OO X@ OOOOOOOOO  OOOOOOO +++++ ++@+@+",
"++@@++++++++ OO XX OOOOOOO  X    OOOO +@+++ ++++++",
"++++++++@++  OO    OOOOOO  X@XXX  OOO  +@@+ ++++++",
"+++++++@@++ OOOOOOOO..OOO XXXXXXX  OOO @+++ ++@@++",
"++++++++@@+ OO.........OO XX@XX@XX OOO ++++ ++++++",
"++++++++++ OOO.OOOOOOOOOO XXXXXXX  OOOO +++ ++++++",
"           OOOOO     OOOOO XXX@X  OOOOO           ",
"           OOO   XXX  OOOO   XX  OOOOOO           ",
"++@++++ + OOOO  XX@XXX OOOOO    OOOOOOOO +++++++ +",
"+++@+++ + OOOO XXXXX@X OOOOOOOOOOOOOO..O @++++++ +",
"+++@+++ + OOOO XXXXXXX OOOOOOOOOOO....OO +@+++++ +",
"+++++++  OOOOO X@XXXXX OOOOOOOOOOOOOOOOOO ++++++ +",
"+++@+++  OOOOO  XXXXX  OOOOOOOOOO.OOOOOOO +++++@ +",
"+++@+++  OOOOOO       OOOOOOOOOO..OOOOOOO  ++++@ +",
"+++++++ OO..OOOOOOOOOOOOOOOOO....OOOOOOOOO +++++ +",
"++++++  OOO....OOOOOOOOO......OOOOOOOOOO    ++++ +",
"          OOOOO....OOOOOOOOOOOOOOOOOO    oo       ",
"    @  oo    OOOOOOOOOOOOOOOOOOOOO    ooooo       ",
"+++++ oooooo    OOOOOOOOOOOOOO    oooooooooo + +++",
"++++@ oooo oooo               ooooo      ooo + +++",
"++++@  ooo      oooooooooooooooooooo  ooooo  + +++",
"++++++    ooooo     oooooo    oooooooooo    ++ +++",
"++++++@++      oooooooooooooooooooo      +++++ +++",
"++++@@@@+++ +@@                    ++@++@+++++ +++",
"+++++++++++ ++++++++++++++++++ +++++++++++++++ +++"
};
