/* XPM */
static char *open_exit[] = {
/* columns rows colors chars-per-pixel */
"50 50 4 1 ",
"  c black",
". c #4E4646",
"X c #8F8181",
"o c white",
/* pixels */
"XXXXXXXXXXXXX XXXXXXXXXXXXXXooXX XXXXXXXXXXXXXXXXX",
"XXXXXXooXXXXX XXXXoooooooXXoooXX XXXoooooXXXXXXXXX",
"XXXXooooooXXX XXXXXXXXXXXXXooXXX XXXXXXXXXXXXooXXX",
"XXooXXXXXoXXX XXXXXXXXXXXXXXXXXX XXXXXXoXXXXXXXoXX",
"XXXXXXXXoXXXX XXXXXXXXXXXXXXXXXX XXXXXXXXoooooXXXX",
"XXXXXXXXXXXXX XXXXXXXXXXXXXXXXXX XXXXXXXXXXXXXXXXX",
"                                                  ",
"                  ooooo                           ",
"XXXXoXXXooooooooXXXXXX XXXXXXXXXXXXXXXXXXXXXX XXXX",
"XXXXXXXXXXXXXXXXXXXXXX        ooooXXXXoXXXXXX XXXo",
"XXXXXoXXXXXXXXXXXXX   ........   XXXoooXXXXXX XXXo",
"XXXXXXooooooooooX  ...        ...  oXXXXXXXXX XXXX",
"XXXXXXXXXXXXXXXX ...  ........  ... XXXXXXXXXoXXXX",
"XXXXXXXXXXXXXX  ..                ..  XXXXXXX XXXX",
"              ... ................ ...  o         ",
"              .. .................. ..            ",
"XXXXoXXXX XX ..                      .. XXXXXXXXoX",
"XXXXXXXXX X .. ...................... .. XXXXXXXoX",
"XXXXoXXXX X .. ...................... .. XXoXXXXXX",
"XoXXXXoXX  ..                          .. oXXXXXXX",
"XXXXXXXXX  .. ........................ .. XXXXXXXX",
"XXXXXXXXX  .. ........................ .. XXXXXXXX",
"          .. .......................... ..        ",
"          ..                            ..        ",
"XXXXXXXXX .. .......................... ..  XXXoX ",
"XXXXXXXXX .. .......................... ..  XXoXoX",
"XXooXXXXX ..                            ..  XXXXXX",
"XXXXXXXXo .. .......................... ..  XXXXXX",
"XXXXXXXoo .. .......................... ..  XXooXX",
"XXXXXXXXoo ..                          .. X XXXXXX",
"XXXXXXXXXX .. ........................ .. X XXXXXX",
"           .. ........................ ..         ",
"            .                         ..          ",
"XXoXXXX XXX .. ...................... .. XXXXXXX X",
"XXXoXXX XXXX ..                      .. XoXXXXXX X",
"XXXoXXX XXXXX .. .................. .. XXXoXXXXX X",
"XXXXXXX XXXXX ... ................ ... XXoXXXXXX X",
"XXXoXXX XXXXoo  ..                ..  XXXXXXXXXo X",
"XXXoXXX XXXXXXXX ...  ........  ... oooooooXXXXo X",
"XXXXXXX XXXXXXXXX  ...        ...  XXXXXXXXXXXXX X",
"XXXXXXX XXXXXXXXXXX   ........   XXXXXXXXXXXXXXX X",
"                                                  ",
"    o                                             ",
"XXXXXXXXXXX XXXXoXXoXoXXoXXXXX XXXooXXXXXoXXXX XXX",
"XXXXoXXXXXX XXXXXXXXXXXXXXXXoX XXXXXXXXXXXXXXX XXX",
"XXXXoXXXXXX XXooXXXoXXXXXXXXXX XXXXXXXXXXXXXXX XXX",
"XXXXXXoXXXX XoXXXXXooooXXXoXXX XXXXXXXXXXXXXXX XXX",
"XXXXXXoXXXX XXoXXXXXXXXXXooXXX XXooXoooXXXXXXX XXX",
"XXXXooooXXX XooXXXXXXXXXXooXXX XXXXXXoXXoXXXXX XXX",
"XXXXXXXXXXX XXXXXXXXXXXXXXXXXX XXXXXXXXXXXXXXX XXX"
};
