/* XPM */
static char *exit_closed[] = {
/* columns rows colors chars-per-pixel */
"50 50 123 2 ",
"   c black",
".  c #151719",
"X  c #16191B",
"o  c #1A1A1D",
"O  c #1C1C20",
"+  c #1F2123",
"@  c #1C2B35",
"#  c #1D2F39",
"$  c #1D303C",
"%  c #212124",
"&  c #232629",
"*  c #26292B",
"=  c #2A2C2E",
"-  c #2B2D30",
";  c #2E3133",
":  c #23323C",
">  c #29363D",
",  c #2A383F",
"<  c #323334",
"1  c #333539",
"2  c #3A3C3F",
"3  c #2A3840",
"4  c #393E42",
"5  c #3B4145",
"6  c #3D4348",
"7  c #414244",
"8  c #424549",
"9  c #454A4C",
"0  c #464D51",
"q  c #4A4F52",
"w  c #4C5254",
"e  c #4F5659",
"r  c #515659",
"t  c #54595D",
"y  c #595E61",
"u  c #5C6266",
"i  c #5E6468",
"p  c #616566",
"a  c #646769",
"s  c #646A6D",
"d  c #6A6C6D",
"f  c #656D71",
"g  c #686E71",
"h  c #6C7376",
"j  c #6C757A",
"k  c #6F7878",
"l  c #71767A",
"z  c #737A7E",
"x  c #9C683E",
"c  c #9B6944",
"v  c #A26E43",
"b  c #A06E4A",
"n  c #A57247",
"m  c #A87345",
"M  c #A5734A",
"N  c #AA764B",
"B  c #AD7A4E",
"V  c #B07B4E",
"C  c #A97651",
"Z  c #AD7C51",
"A  c #B27E52",
"S  c #B58255",
"D  c #B98456",
"F  c #B6855A",
"G  c #BA8659",
"H  c #B7885B",
"J  c #BC8A5C",
"K  c #BE8D61",
"L  c #BF9062",
"P  c #C18C5E",
"I  c #C28E61",
"U  c #C49264",
"Y  c #C99466",
"T  c #C69669",
"R  c #CA9769",
"E  c #C7986A",
"W  c #CB9A6C",
"Q  c #D19D6E",
"!  c #CE9E71",
"~  c #D09F71",
"^  c #CFA073",
"/  c #D1A274",
"(  c #D5A67A",
")  c #D9A678",
"_  c #D7A97D",
"`  c #D8AA7C",
"'  c #757D81",
"]  c #787E82",
"[  c #778284",
"{  c #7B8385",
"}  c #7D8689",
"|  c #80878D",
" . c #83898E",
".. c #848D91",
"X. c #898E93",
"o. c #879195",
"O. c #899295",
"+. c #8C969A",
"@. c #8E989D",
"#. c #959596",
"$. c #939699",
"%. c #91999D",
"&. c #959EA2",
"*. c #95A0A5",
"=. c #99A3A7",
"-. c #9DA6AB",
";. c #9EA8AD",
":. c #9FAAB0",
">. c #A5A7A7",
",. c #A1A6AA",
"<. c #A1A9AE",
"1. c #A1ABB1",
"2. c #A5B1B6",
"3. c #A7B3BA",
"4. c #ABB6BD",
"5. c #ADB9BE",
"6. c #DDAE83",
"7. c #B4BFC5",
"8. c #B9BFC4",
"9. c #B3C0C5",
"0. c #B6C2C9",
"q. c #B9C4CB",
"w. c #C3C3C6",
/* pixels */
"I J L L ^ E I J I R W E / / H E E J H U P P Y I P D E E L ! Y U Q U Q Y R R P D D B N S H K L L H F ",
"J J K U W T U L Y W W W ^ W H T D J H U U J D J I D E E E W Y U Q U Q U P P D D S B B F H H L L L F ",
"J J K U L I I Q U ! E W ^ L S L S J S U D J D H I J L L U E U Y Q R Q U A P V A S S B F H K L K L K ",
"J J S U I L U Q R W W ^ ! L S L H L L L J H S J U D L L U Y Y Y Q U Q U A P P V F S S H H H L F F K ",
"D V v m U G Q Q Y W E ^ W J J J H L L L J I H D J L U U Y I Y E ~ R R I D J G A S F S S H H L F Z K ",
"D V m v U G W W W ^ W ) W J S D J H L I P Y 7 o o o o = L U U U R J J J D D S S H S C S H H L L K Z ",
"D S m m I S E ^ W ^ W ( Q I D A H J . . . . X.1.1.1.2.5.. X . . < S S S S S K G S J F S F F L L K K ",
"S B B m J S W / W ^ W ` W I < < < h #.%.%.* a %.;.;.2.5.o t d d p < < G A S K D H B B S H H L L K F ",
"D S A v A D U / / / W U d d l | * y +.;.;. .9 g @.;.@.r r ..+.+...O j d A B I n Z F A F S K E K A F ",
"J V S m G G T / / ( E #.2 o ;.5.* e [ @.;.} = 5 u h u %  .=.;.+.g 5 -.w >.A K F F F C C K C E K K K ",
"D D S S I K E / ( / $.2 z o *.;.5 e s j $.: @ @ @ @ @ > +.+.+.f ; ' ;.;.- w.Z B H L ! Z c c Y K K K ",
"G D J S A K T / ! a e -.;.o k ;.9.t o o o                 o X 5 ' ;.-.;.<.; &.F K L E A M c I K F A ",
"D D G A A G T ~ <  .5.;.;.,.o o                                     q.q.o O o a L E E S M c Z V V F ",
"S B B N D I T ~ <  .5.;.;.X                                             O X.5...; E R D C N Z Z V G ",
"G A A B G K I ! ; o 6 j l o                                             ,.-.;.z ; R W G M b Z M V G ",
"H G N Z I G T 4  .X.i = *                                                 -.O.t + 7 W D m b K N C G ",
"F D B B F D J o { *.O.t o                                                 y 0 8 9 o W J n x Z B C K ",
"H Z N B D J J X d  .*.o.o                                                 4 9 t d X R S A B U S A G ",
"K F M Z F F P + a h } } @                                                 O.:.+.g X R J A n K F I K ",
"U J S J S N % h & t w :                                                     3.@.g o % D Z N Z I K G ",
"W I D U S V o =.@.9 + #                                                     - * = s o S B B J D T ! ",
"I I D K S S o [ -.=.a #                                                     y }  .*.o S N m D J Y ! ",
"R P J P D J o 2 [ =.h $                                                     f :.;.<.o S N N D P K T ",
"U J S J P U o 7 0 u 9 $                                                     j 2.=.s o D N v S D E W ",
"P G J J P U o { 9 9 < $                                                     i X.] < o D N v A A I ! ",
"U I J P D P o >.7.0.z 3                                                     O + 1 ] o I G D N N S ! ",
"U P P P H Y o ;.-.;.g ,                                                     O q ,.<.o I I I V V A W ",
"Y P D I J Y o z -.-.g ,                                                     i *.-.<.o Y I G V A G ! ",
"U P D P D U o < [ } t >                                                     y o.&.8 O I P U P P K T ",
"I U J U S P o g 0 9 < ,                                                     1 w i f O I U Y U P G T ",
"Y P D Y H U o 8.0 5 ; >                                                     - 4 9 7.O I U U R I I E ",
"P D D U D I o 1.7.0.' >                                                     f -.-.<.o U Y Y U U I / ",
"U P D P D P . >.<.;.d ,                                                     w } -.1.o R I Y P U K ! ",
"Y P I P V D . >.;.;.d $                                                     o o + l o U G U I Y U ! ",
"Y P J I V P o >.z k q #                                                     f 2.4.o o U U U P R T ! ",
"R D P I P P o = * & + #                                                     f :.1.2.o D P P P / W ! ",
"Y P D I P D o k h 1 o #                                                     t O.;.4.o D P P Q / ! ! ",
"W P P P P D o k =.u = #                                                     2 h ;.-.o T P P ) ~ ! W ",
"R J J P V P . o X.z 9 $                                                     o 8 &.;.o R I J ` / ~ ! ",
"W P D D P P . o . o X $                                                     o o & <.o W J G ) ( ~ ! ",
"Y P P D P Q o o %.5.' 3                                                     w } &.o o W J T ` / ! K ",
"P P P V P R o l =.<.f #                                                     w } ;.;.o E E U _ ^ T C ",
"P P D V P Y                                                                           W W T ` E c A ",
"P P P P P Q R P R P n J V V P J Q Q P I J U D J D C n Z K J Y W Y J J 6.` / K K I T J R W E ^ W U A ",
"P P P D P R Y Y Y K Z I G G Y I Y Y P I U Y S J Z M Z F I D W Y W D H ` ( ^ D D P Y U E ^ W W T K C ",
"P D D P D I Y P R K N K D J W R Y Y P I Y W S D S A N D K U Y Y P S J _ ` W S S I Y W W ! W W I K A ",
"P P D P R Y R I Y A c K D J T W U U U W U W S J S V S F J P R Y J H H ( ` ! U J P I T / W ^ W J G Z ",
"P D P A ~ W W I I G M U K K U R R U U U U W D D D V A J J P U U J S S ( 6.W J P I U E ^ W / U P G K ",
"P D D V ~ Q Q Y P D V I K I U Y I G W W T W S G K B Z D I I T U J D S W E K K J U R T W ^ ! U P J Z ",
"P D D V ` ) Q Y Y D I A K A I I I I T W Y ! G G I A V G U U E U J J D H F C T U T E W / ^ ! J A S H "
};
