/* XPM */
static char *floor[] = {
/* columns rows colors chars-per-pixel */
"50 50 42 1 ",
"  c #97663E",
". c #9B673E",
"X c #9D693F",
"o c #9E6B43",
"O c #9C6D48",
"+ c #A26E44",
"@ c #A36F49",
"# c #A47146",
"$ c #A97446",
"% c #A5734A",
"& c #AA764B",
"* c #AD794E",
"= c #B17B4E",
"- c #AA7651",
"; c #AD7B51",
": c #B27E52",
"> c #B58255",
", c #B98456",
"< c #B68559",
"1 c #BA8659",
"2 c #B7885B",
"3 c #BC8A5C",
"4 c #BE8D61",
"5 c #BF9063",
"6 c #C18C5E",
"7 c #C28E61",
"8 c #C49264",
"9 c #C99466",
"0 c #C69569",
"q c #CA9769",
"w c #C7986A",
"e c #CC9A6C",
"r c #D19D6E",
"t c #CE9E71",
"y c #D19F71",
"u c #CFA072",
"i c #D2A274",
"p c #D5A67A",
"a c #D9A678",
"s c #D6A97D",
"d c #D9AA7D",
"f c #DCAD82",
/* pixels */
"7358uw837wewiu2ww32866986,ww5y98e8r9qr6,,>%>42554<",
"3358w8859eewuu38<32883,37,wwww98r9r8,61>,$*>22554<",
"3338577e9eweu5>5>3>8,3,282558w99e9r8=6==>>*222525<",
"33>8859yqeeiw8<525443,>38,558989r9r8,66>2>>2525<<4",
",=++73erqewuw316345738>,435ww789r9e8>33:>2>>225<:4",
",>$+73eeetwpe3>133356w>>538w5889e311,,<>,>&>22554:",
",*$$7>ereueay7,:334568,>5>885989q<>>,>32>2<><<5554",
",**$3>eueuedq7>>334836>>3>855w89q2><>>4<2&>>22554<",
",>>X:18iiiw8&=epi55936><3>634ew8r232>$4#><;><<w5:<",
"1>>$110tipw8&@qyu87798*&53985weqr222*>5<<<-;4;0544",
",,>>47wipue8@&0ye54936,3899948wqt333>>**<5e>OO8444",
"1>6>:40iuit0-@7eu27863>3weq8559ee323>>2<450;%o83,:",
",13:=3wu5;@--+0pi83316><678558wee32<;>>350w>%@;:-1",
",&**138ue;-::+0du8476,,:398858>*>23;>>>25we>-%&-;1",
"1>*=338t8<;:;+tfr73,66,,789958>%o<>;;>323qe<%%;%:1",
"11$*7<8w22::-@0fi713311166843w%X#22>=:3349e<%%4&&1",
"1>**,<774::-@@0fi636>>>2386668>##>>>>&>25we3#X*&-2",
"2:&;>,4777:<-O0yr4342>35e9e638*+&><5ww>>58q>>$8>:3",
"42--1177::-,&oeye3362>39ur7345#o%>,5ei>>4qe3>#5>83",
"83:4>&778:&*++eey663>>68yw9324&#+>>5ei>>4qe,*$>434",
"q8<7::1,:4:4++0ii3,2>>88rer455&O$<>8ei>>8wr>>$31wt",
"77<6,:1,:::-@oeti3,5#>88y79355&o*428eiX+>8r>$$230t",
"e636,14<<-5:&+0pa,38#O5wreq452& $268uu+X$8q>$*,480",
"73>34774:-04=#0sd2,>> 5wr9e554>#>88wui#&>3q>=X>,0e",
"666167,34444:7wyf<><;%40iq9684&#*789ui#&$79:$+::8e",
"7661,7637:44:60yp>>4%-7ttrq666&o>8eqri>#-69716&$>t",
"866619984%77:19tt2<<-;7eirq667&X>7eeea>++::977==;e",
"96,71w857::=,197554-Oo4wrir636&X*9eeea<*$69976==1e",
"96,3>8q91&$=:1e85w4-%O4wye9633*$*769ei2&=79966868w",
"7738>6887$@$=:055w4;%O48i7776663667qip<-:q97898630",
"q619,892,$+==,047q3>%%40e>13=196,689yi4:*y9988987w",
"6,,8,85>6&X&:1938q7>-%48e&>3369qq76qei>:1y9789887u",
"7616=66>6=+&=,q6996:=&48qO4:1477r718ei,$4eqw79688e",
"q666=66=:=+#,,e39q6:&.7e0@4417qr7:,8ei>23er818798u",
"q637=666=$$&=:y38q6$%&704@-433rqq>,6ei167rr679690e",
"q1186,=>,#$&=,y6696$&-784O-4119rq=68rr366re2668ywu",
"96166,69e;o&==r68r6=;-394--><4r99>699r3>6re166ritt",
"q6666,96e-.+=:q17q6&&;774>:2>2q78>7aee3,3re866arte",
"q616=666r:+#==666e6&:%:1:%-44<9q9,8dee716yqw64diut",
"e6,,6666r:#&$=36796=;%>3><>412yq9=7dre639r9w32aiyt",
"96,,6q999:&:$&669q6$=+<,><>433ye65wdue,,6eqw78dit4",
"966,6qq6r:&:==667q6>**>,><<51,ae77wdie>,6r8w8wai0-",
"666=69r69:-6=$669q6778,><<O337e996wdde63398ew8dw.:",
"666,6rq697@7$=66rq6667>3>-%*639e935dau556939twut8;",
"6,6,6q9907-46677996879>3;%-<8,e9w,,dpu,,798wutw85;",
",,,9,696r1&4:6qq9q66qq,3>>-<47996>,dde>>78eetwe83>",
"6,,6q9q79:o4<19r96we7e>1>=>236e9322ddt8667wrtyw61*",
"6,6,yee77,-7767re6888e>,,&>333885>>pde3388wuey873<",
"6,,=arr97,-6:90871ee8e>41::,77982,,ww2534eweiu743>",
"66,=aar99:617:7777qewt<,7:=,08085,,,2>w58eeuue3>>2"
};
