/* XPM */
static char *floor[] = {
/* columns rows colors chars-per-pixel */
"50 50 3 1 ",
"  c black",
". c #8F8181",
"X c white",
/* pixels */
"............. ..............XX.. .................",
"......XX..... ....XXXXXXX..XXX.. ...XXXXX.........",
"....XXXXXX... .............XX... ............XX...",
"..XX.....X... .................. ......X.......X..",
"........X.... .................. ........XXXXX....",
"............. .................. .................",
"                                                  ",
"                  XXXXX                           ",
"....X...XXXXXXXX...... ...................... ....",
"...................... .....XXXXXX....X...... ...X",
".....X................ .............XXX...... ...X",
"......XXXXXXXXXX...... .......XXXXXX......... ....",
"...................... ...XXXX...............X....",
"...................... ...................... ....",
"                                        X         ",
"                                                  ",
"....X.... ......XX.X................ ...........X.",
"......... ..............XX.......... ...........X.",
"....X.... .................XXXX..... ......X......",
".X....X.. ..X....XX....XX......X.... .....X.......",
"......... ......XX.................. .............",
"......... ......X................... .............",
"              XX              X                   ",
"            XXX              XX                   ",
"...........X...... ........X............... ...X. ",
"..........XX...... ........X............... ..X.X.",
"..XX.............. .XX.................X... ......",
"........X..XX..... ...XX.........X......XX. ......",
".......XX......... ...........X........X... ..XX..",
"........XX........ ........................ ......",
".................. ........................ ......",
"                                XXX               ",
"                                                  ",
"..X.... ..........XX...... ...XXXXXXX........... .",
"...X... .................. ....X.........X...... .",
"...X... ............X..... ...XX.....X....X..... .",
"....... ..........XX...... ...X.....X....X...... .",
"...X... ....XX...X...XX... ....................X .",
"...X... .................. ....X..XXXXXXXXX....X .",
"....... .................. ..................... .",
"....... .................. ..................... .",
"                                                  ",
"    X                                             ",
"........... ....X..X.X..X..... ...XX.....X.... ...",
"....X...... ................X. ............... ...",
"....X...... ..XX...X.......... ............... ...",
"......X.... .X.....XXXX...X... ............... ...",
"......X.... ..X..........XX... ..XX.XXX....... ...",
"....XXXX... .XX..........XX... ......X..X..... ...",
"........... .................. ............... ..."
};
