/* XPM */
static char *open_exit[] = {
/* columns rows colors chars-per-pixel */
"50 50 5 1 ",
"  c black",
". c #4E4646",
"X c #7D7474",
"o c #8F8181",
"O c white",
/* pixels */
"ooooooooooooo ooooooooooooooOOoo ooooooooooooooooo",
"ooooooOOooooo ooooOOOOOOOooOOOoo oooOOOOOooooooooo",
"ooooOOOOOOooo oooooooooooooOOooo ooooooooooooOOooo",
"ooOOoooooOooo oooooooooooooooooo ooooooOoooooooOoo",
"ooooooooOoooo oooooooooooooooooo ooooooooOOOOOoooo",
"ooooooooooooo oooooooooooooooooo ooooooooooooooooo",
"                                                  ",
"                  OOOOO                           ",
"ooooOoooOOOOOOOOoooooo oooooooooooooooooooooo oooo",
"oooooooooooooooooooooo        OOOOooooOoooooo oooO",
"oooooOooooooooooooo   ........   oooOOOoooooo oooO",
"ooooooOOOOOOOOOOo  ...        ...  Oooooooooo oooo",
"oooooooooooooooo ...            ... oooooooooOoooo",
"oooooooooooooo  ..                ..  ooooooo oooo",
"              ..  XXXXXXXXXXXXXXXX ...  O         ",
"              ..  X              X  ..            ",
"ooooOoooo oo ..   X              X   .. ooooooooOo",
"ooooooooo o ..    X              X    .. oooooooOo",
"ooooOoooo o ..    XXXXXXXXXXXXXXXX    .. ooOoooooo",
"oOooooOoo  ..     X              X     .. Oooooooo",
"ooooooooo  ..     X              X     .. oooooooo",
"ooooooooo  ..     X              X     .. oooooooo",
"          ..      XXXXXXXXXXXXXXXX      ..        ",
"          ..      X              X      ..        ",
"ooooooooo ..      X              X      ..  oooOo ",
"ooooooooo ..      X              X      ..  ooOoOo",
"ooOOooooo ..      XXXXXXXXXXXXXXXX      ..  oooooo",
"ooooooooO ..      X              X      ..  oooooo",
"oooooooOO ..      X              X      ..  ooOOoo",
"ooooooooOO ..     X              X     .. o oooooo",
"oooooooooo ..     XXXXXXXXXXXXXXXX     .. o oooooo",
"           ..     X              X     ..         ",
"            .     X              X    ..          ",
"ooOoooo ooo ..    XXXXXXXXXXXXXXXX    .. ooooooo o",
"oooOooo oooo ..   X              X   .. oOoooooo o",
"oooOooo ooooo ..  X              X  .. oooOooooo o",
"ooooooo ooooo ... XXXXXXXXXXXXXXXX ... ooOoooooo o",
"oooOooo ooooOO  ...              X..  oooooooooO o",
"oooOooo oooooooo ...            ... OOOOOOOooooO o",
"ooooooo ooooooooo  ....XXXXXX....  ooooooooooooo o",
"ooooooo ooooooooooo   ........   ooooooooooooooo o",
"                                                  ",
"    O                                             ",
"ooooooooooo ooooOooOoOooOooooo oooOOoooooOoooo ooo",
"ooooOoooooo ooooooooooooooooOo ooooooooooooooo ooo",
"ooooOoooooo ooOOoooOoooooooooo ooooooooooooooo ooo",
"ooooooOoooo oOoooooOOOOoooOooo ooooooooooooooo ooo",
"ooooooOoooo ooOooooooooooOOooo ooOOoOOOooooooo ooo",
"ooooOOOOooo oOOooooooooooOOooo ooooooOooOooooo ooo",
"ooooooooooo oooooooooooooooooo ooooooooooooooo ooo"
};
