/* XPM */
static char *open_exit[] = {
/* columns rows colors chars-per-pixel */
"50 50 185 2 ",
"   c black",
".  c #151719",
"X  c #17191B",
"o  c #1A1A1D",
"O  c #1C1C20",
"+  c #1F2123",
"@  c #1D282E",
"#  c #1D2C35",
"$  c #1D2E39",
"%  c #1E303B",
"&  c #212124",
"*  c #232629",
"=  c #26292B",
"-  c #2A2C2E",
";  c #2B2E31",
":  c #2E3133",
">  c #24323D",
",  c #2A373D",
"<  c #2A383F",
"1  c #323334",
"2  c #333539",
"3  c #383B3E",
"4  c #2C3B42",
"5  c #393E42",
"6  c #3B4145",
"7  c #3D4348",
"8  c #414244",
"9  c #424549",
"0  c #454A4C",
"q  c #464D51",
"w  c #4A4F52",
"e  c #4C5254",
"r  c #4F5659",
"t  c #515659",
"y  c #545A5D",
"u  c #595E61",
"i  c #5C6266",
"p  c #5E6468",
"a  c #616566",
"s  c #646769",
"d  c #646A6D",
"f  c #6A6C6D",
"g  c #656D71",
"h  c #686E71",
"j  c #6C7376",
"k  c #6C757A",
"l  c #6F7878",
"z  c #71767A",
"x  c #737A7E",
"c  c #9C683E",
"v  c #9B6944",
"b  c #A26E43",
"n  c #A57247",
"m  c #A87345",
"M  c #A5734A",
"N  c #AA764B",
"B  c #AD7A4E",
"V  c #B07B4E",
"C  c #A97651",
"Z  c #AD7C51",
"A  c #B27E52",
"S  c #B58255",
"D  c #B98456",
"F  c #B6855A",
"G  c #BA8659",
"H  c #B7885B",
"J  c #BC8A5C",
"K  c #BE8D61",
"L  c #BF9062",
"P  c #C18C5E",
"I  c #C28E61",
"U  c #C49264",
"Y  c #C99466",
"T  c #C69669",
"R  c #CA9769",
"E  c #C7986A",
"W  c #CB9A6C",
"Q  c #D19D6E",
"!  c #CE9E71",
"~  c #D09F71",
"^  c #CFA073",
"/  c #D1A274",
"(  c #D5A67A",
")  c #D9A678",
"_  c #D7A97D",
"`  c #D8AA7C",
"'  c #2C6584",
"]  c #0F75AA",
"[  c #1275AC",
"{  c #1278AC",
"}  c #0F7AB4",
"|  c #137AB3",
" . c #157EB9",
".. c #507687",
"X. c #757D81",
"o. c #787E82",
"O. c #1582BD",
"+. c #1880BC",
"@. c #378AB3",
"#. c #778284",
"$. c #7B8385",
"%. c #7D8689",
"&. c #6D9FB9",
"*. c #1485C2",
"=. c #1986C5",
"-. c #1589C6",
";. c #1A8AC5",
":. c #1687C8",
">. c #158ACA",
",. c #168BCB",
"<. c #1A8DCB",
"1. c #1B90CD",
"2. c #1691D2",
"3. c #1B93D4",
"4. c #1E99D7",
"5. c #1794D9",
"6. c #1B96DA",
"7. c #1B99DC",
"8. c #2892CB",
"9. c #2295D3",
"0. c #2199D6",
"q. c #2197D8",
"w. c #239BDB",
"e. c #2B9DD9",
"r. c #2CA1DC",
"t. c #33A3DD",
"y. c #3CA7DD",
"u. c #3CA9DF",
"i. c #1C99E0",
"p. c #249EE0",
"a. c #25A0E2",
"s. c #2DA3E1",
"d. c #33A7E3",
"f. c #36A9E5",
"g. c #3AAAE4",
"h. c #3CADE8",
"j. c #48ABDC",
"k. c #41ADE4",
"l. c #48AEE5",
"z. c #46B2E5",
"x. c #4CB2E5",
"c. c #43B2EB",
"v. c #49B4EB",
"b. c #4FBAEF",
"n. c #52B5E5",
"m. c #57B8E6",
"M. c #54BAEB",
"N. c #5BBCEA",
"B. c #55BCF1",
"V. c #61BEE7",
"C. c #62BBE8",
"Z. c #5FC5F5",
"A. c #6FC1E7",
"S. c #65C3ED",
"D. c #6AC3EC",
"F. c #66C3F1",
"G. c #69C4F0",
"H. c #80878D",
"J. c #83898E",
"K. c #848D91",
"L. c #898E93",
"P. c #879195",
"I. c #899295",
"U. c #8C969A",
"Y. c #8E989D",
"T. c #969899",
"R. c #91999D",
"E. c #959EA2",
"W. c #95A0A5",
"Q. c #99A3A7",
"!. c #9DA6AC",
"~. c #9EA8AD",
"^. c #9FAAB0",
"/. c #A2A8AB",
"(. c #A1ABB1",
"). c #A5B1B6",
"_. c #A7B3BA",
"`. c #ABB6BD",
"'. c #ADB9BE",
"]. c #DDAE83",
"[. c #AFBBC1",
"{. c #B5BFC5",
"}. c #B6C2C8",
"|. c #B6C3C9",
" X c #C3C3C6",
/* pixels */
"I J L L ^ E I J I R W W ^ / H T T K H I P I Y I P D E E L ^ Y U Q I Q Y Q R J D D B N F H K L L H F ",
"J J K U W T U L Y W Q E ^ W K E S J H U I J D J U D E E W E Y U Q U Q I P D G D D B M D H K L L K F ",
"J J K U L I I Q U W E Q ^ L S L S J S U D J H G I J L L U R U Y Q Y Q Y A P S V S S B H H H L K L A ",
"J J S U I L U Q E W W ^ W L S L H L L L P D S J U S L L U U Y Y Q U Q U D G P V F S G H H H L F K K ",
"D V b m U G Q Q W Q U ^ W J J J J L L L J U H S L J U E E P U Y Q R R U D J J A S H Z S H H L F A K ",
"D V m b U G W W W ~ E ` W J S G J H J L P Y 8 o o o o = L E U U R P G J D D F S S S Z S H H L L K A ",
"D S m m I S E ^ E ~ E ) Q P D A D G . . . . P.(.~.(.).'.. . X . 1 S S S S S K D S H F S F H L L L K ",
"S B B m J S W / ! / E ` W P 1 1 1 l T.R.R.= s Y.~.~.).'.o u f f a 1 1 F A S K D G Z Z S H H L L K K ",
"D S A b A D U / / / W U f f l H.= u U.~.~.K.0 h Y.~.R.t t J.U.Y.K.O k f A B K n Z S Z S F H E K A K ",
"J V S m G G T / / ( T T.3 o /.'.= e #.Y.~.#.: 6 i j i & J.Q.~.U.h 6 !.e /.A K F F F C Z K C E L K A ",
"D D S S I K E / / / T.3 x o Q.~.6 r d j Y.> # @ @ # # > U.U.U.g : X.!.(.;  XZ Z K K W S v v U K K K ",
"G D J S A K T / / s r !.~.o l !.}.y o o o 1.7.z.h.7.7.1.o o o 5 X.~.!././.1 T.F K L E Z C v U K F A ",
"D D G A A G T ~ 1 J.'.~.~./.o o o r i.a.D.S.D.x.n.S.S.S.0.0.0.' - {.|.|.o O o s L E W S M v Z A C G ",
"S B B N D I T ~ : J.'.~.!.o 8.8.C.A.Z.Z.4.4.4.6.6.6.6.w.S.S.F.n.@.O o O O L.[.J.: E W S C M Z C N K ",
"G A A B G K I ! : o 7 k z o 9.Z.r.4.5.6.O.*.*.O.O.*.O.*.q.4.4.g.N.8.@.X /.!.!.x : Y W D n n C C C G ",
"H G N Z I G T 5 J.L.p - = &.N.t.-.*.-.-.6.6.3.4.6.3.3.3.*.:.:.<.d.B.C.o !.!.I.u O 8 W F N N G N B G ",
"G S N B D F I X $.E.P.y + j.u.,.O.;.1.1.h.c.c.S.n.h.h.h.1.1.*.-.1.u.j...t y q 9 0 o W G n c A C C K ",
"H A N Z F D J . f K.E.P.o 0.3.O.-.w.f.f.n.x.n.t.u.n.M.x.f.f.3.*.*.2.7.m.o 6 0 t f o W D A B I S A G ",
"K F M Z D J P & s j %.%.@ 4.O.O.w.c.V.m.7.7.7.,.2.7.7.7.N.S.f.9.*.*.7.4.o I.(.U.f . W D A b K F I K ",
"U K S H S N & j * y e % 6.O.7.7.Z.u.7.i.7.*.O.+.O.O.-.7.4.7.x.v.7.7.*.4.o /._.Y.f o + G Z N Z I K G ",
"R I D I S V o Q.R.q + $ O.O.4.Z.e.4.3.O.*.O.O.-.=.+.O.*.O.7.7.u.B.7.+.O.;.4 ; - ; f o S B V J H T ! ",
"I I F I S S o #.Q.Q.s $ O.3.M.r.-.:.*.+.+.3.6.w.w.3.2.+.O.-.-.1.t.M.3.+.:.# u %.J.W.o S N m G J T W ",
"R P J P D J o 5 $.Q.j % 2.v.d.7.*.+.+.O.2.z.v.N.N.v.g.1.+.O.O.,.4.g.v.3.O.# g ~.~.^.o A N m D I I T ",
"U J S J P U o 7 0 i 0 % 7.F.4.2.*.+.*.3.g.z.z.r.t.z.z.g.,.O.+.-.2.q.S.7. .# k ).Q.g o D N b S D T ! ",
"P G D P P U o $.0 0 : % t.M.7.*.+.*.9.d.M.7.2. .+.2.w.x.d.1.O.O.*.q.b.d.=.$ i L.X.2 o A N b A A I ! ",
"U I J P D I o /.{.|.X.< D.7.5.O.*.9.f.n.7.3.| { [  .6.7.S.s.1.O.*.7.7.G.7.$ O & 2 o.o I P D N N S ! ",
"U P P P D R o ~.~.~.f < D.7.O.O.4.v.x.7.7.]  .[ | | { 7.7.N.f.1.*. .7.G.7.$ O q /./.o I P P N V A W ",
"Y P D P D R o x Q.~.h < D.4.O.O.3.v.x.3.[  .=.| | :. .[ 7.N.f.1. .*.7.G.7.> p E.!.(.o Y P P V A F W ",
"U P D J D U o 2 o.%.t < t.,.O.*.7.N.r. .| [  .k.d.{ [ { *.y.M.6. .*.2.k.l.$ u P.E.9 O I G Y I P I T ",
"U I P U S I o h q 0 2 < j.2.O.*.5.Z.t.*.{ | O.t.s.| | [ ,.k.v.3. .*.3.x.h.$ 2 e u g O I Y Y Y P J T ",
"Y P D R D U o {.q 6 1 < D.7.O.O.7.v.x.5.| | =.[ [ -.|  .7.N.f.2.O.*.7.G.i.$ ; 5 7 {.O U I I R U I W ",
"P D D U D I o (.}.|.x < D.7.*.*.3.v.z.0.7.| | [ { | } 7.w.N.f.2.O.*.q.D.i.$ g ^.^./.O U Y Y Y U I ! ",
"U P D P S P . /././.g < S.0.7.O.O.1.f.m.0.7.} [ [  .7.w.F.a.,.O.O.7.0.F.0.% e %.!.(.o Y I Y P Y K ! ",
"Y P P P V P . /.~./.f % 7.G.7.*.O.O.,.p.S.w.7.-.>.7.s.N.7.*.O.O.*.4.F.7.O.# o X & z o U G U P Y U ! ",
"R P J U S S o /.l l w % 7.G.4.7.*.+.O.*.7.S.D.y.l.D.N.7.O. .+.,.7.0.F.7.O.# g ).`.o o U U Y P Y T ! ",
"W D D U P P o - = * + # *.7.S.4.*.O.O.*.*.w.p.b.z.p.0.*.O.O.O.,.e.N.a.*.O.# g ~.(.).o G P P I / W ! ",
"Y P D P P D o l j 2 X % O.,.f.x.8.2.,.+.O.-.,.3.2.,.,.O.O.,.2.e.v.d.,.O.2.$ y T.(._.o D P P Q / ! ! ",
"W P P P P D o l Q.i ; % ,.O.7.c.u.w.2.,.,.+.+.O.+.+.*.-.,.5.e.k.c.4.O.-.y.> 3 j !.~.o Y P P ) ~ ! W ",
"Y J P P V P o o K.X.0 % 7.*.7.7.B.g.w.w.i.-.*.O.O.*.>.i.a.r.c.z.7.6.*.7.D.< X 9 E.~.o W U J ) / ! ! ",
"W P D D D P o o . X X % 4.7.O.O.4.v.S.N.7.7.7.7.i.7.7.7.D.S.f.3.+.*.i.6.D., o X * (.X E J D ( ( ~ ! ",
"Y P P D P R o o R.[.X.4 D.4.7.*.+.3.7.p.D.D.D.m.N.D.D.S.7.7.,.+.*.7.7.G.7.% e %.R.o o W L T ` / ! K ",
"P P P V P Q o z Q./.h $ O.S.C.4.*.+.O.*.7.7.7.f.t.7.7.7.O.O.O.,.r.D.S.7.O.# e %.~.~.o T U U _ ^ T C ",
"P P P V P Y                                                                           R W U _ W v A ",
"P P P P P R R P R P n J V A P P Q Q P P J U D J S Z n Z K J Y W Y J J ].) / K K U Y J W W E ^ W U A ",
"P P P V P R R Y Y K Z I G J Y I Y Y P I U Y S G Z M Z S K J Y R W J G ` ` ~ G S P Y U W ^ W W U K C ",
"P D P P D I Y P R K N K D D W R Y Y P P R W D J S A Z S I I Y Y P V H _ ` W S S I Y W E ^ ! W L K A ",
"P P D P R I R I Y A v K H G Y Q U U U W U W S G S V A D J I R U J D H ( ` ~ I P P I T ~ W ! W J G Z ",
"P D P A / R Q I I F N I K K I W R U U U U W S D D A A J J P U T J F F ( ].E J J I T T ^ ! / U I G K ",
"P D D V ) Q Q Y P D V I K I U Y I G ! E U W S G J Z V D I I U U J G D E W K L H I W T W / ! U J J A ",
"P D D V ) ) Q Y Y A I A K A I I I K E W R ! G G U A V G U U W U J D D H F C T U T W W ^ ^ ! J A S H "
};
