/* XPM */
static char *wall[] = {
/* columns rows colors chars-per-pixel */
"50 50 225 2 ",
"   c #030201",
".  c #0B0301",
"X  c #010B01",
"o  c #0F0B03",
"O  c #011303",
"+  c #081501",
"@  c #03160B",
"#  c #031A0C",
"$  c #111300",
"%  c #14160B",
"&  c #181208",
"*  c #061911",
"=  c #241202",
"-  c #291703",
";  c #381C06",
":  c #02250A",
">  c #172808",
",  c #183A09",
"<  c #032A15",
"1  c #162818",
"2  c #093618",
"3  c #1C3216",
"4  c #302D0C",
"5  c #1A3929",
"6  c #282C29",
"7  c #2D3831",
"8  c #383837",
"9  c #461602",
"0  c #452305",
"q  c #482608",
"w  c #572F0D",
"e  c #6B370A",
"r  c #70370D",
"t  c #683A12",
"y  c #004319",
"u  c #10511A",
"i  c #284B18",
"p  c #3E4E14",
"a  c #38571B",
"s  c #064524",
"d  c #065628",
"f  c #025D2C",
"g  c #175B2F",
"h  c #085C31",
"j  c #2C5928",
"k  c #2E5932",
"l  c #02612C",
"z  c #086535",
"x  c #026C33",
"c  c #037235",
"v  c #067639",
"b  c #15773A",
"n  c #386524",
"m  c #455011",
"M  c #7D4613",
"N  c #77471C",
"B  c #4C5825",
"V  c #535C27",
"C  c #4E5433",
"Z  c #546C27",
"A  c #447927",
"S  c #496C35",
"D  c #537234",
"F  c #6F7B3C",
"G  c #424342",
"H  c #5A625B",
"J  c #766F4C",
"K  c #656359",
"L  c #6F6B68",
"P  c #787474",
"I  c #843D03",
"U  c #8B4B0F",
"Y  c #8A4D15",
"T  c #98551C",
"R  c #A85A17",
"E  c #B05D13",
"W  c #B66216",
"Q  c #A35D22",
"!  c #AA5F23",
"~  c #9B673E",
"^  c #AB6224",
"/  c #B76825",
"(  c #BB6A29",
")  c #C36919",
"_  c #E0781F",
"`  c #CB7227",
"'  c #D87723",
"]  c #E47B23",
"[  c #EB7C20",
"{  c #9C6943",
"}  c #A26E44",
"|  c #A06E4A",
" . c #A57146",
".. c #A97446",
"X. c #A5734A",
"o. c #AA764B",
"O. c #AD7A4E",
"+. c #B17B4E",
"@. c #A97651",
"#. c #AD7C52",
"$. c #B27E52",
"%. c #8A7765",
"&. c #07883B",
"*. c #19873A",
"=. c #08933F",
"-. c #14933A",
";. c #2C8934",
":. c #279B3D",
">. c #35973B",
",. c #39A23C",
"<. c #478B35",
"1. c #568A39",
"2. c #5B9A38",
"3. c #72912F",
"4. c #49A63B",
"5. c #53B23B",
"6. c #66AB3C",
"7. c #6EB13E",
"8. c #7ABE3F",
"9. c #038D43",
"0. c #078944",
"q. c #128943",
"w. c #029144",
"e. c #0B9244",
"r. c #189844",
"t. c #1B9B45",
"y. c #229A43",
"u. c #29A246",
"i. c #39A947",
"p. c #3FB04B",
"a. c #4F8B46",
"s. c #46AB44",
"d. c #55AF4B",
"f. c #4AB148",
"g. c #57B647",
"h. c #5CB442",
"j. c #5CB846",
"k. c #68AA43",
"l. c #68B447",
"z. c #64BB45",
"x. c #6CBD45",
"c. c #63BC4B",
"v. c #6DBC4A",
"b. c #72BE45",
"n. c #78BC46",
"m. c #7BA352",
"M. c #6FC045",
"N. c #64C04C",
"B. c #6DC24A",
"V. c #72C045",
"C. c #7BC244",
"Z. c #76C248",
"A. c #61C151",
"S. c #879532",
"D. c #92AE3A",
"F. c #84B73A",
"G. c #E98326",
"H. c #94C93D",
"J. c #878E4D",
"K. c #B58255",
"L. c #B98456",
"P. c #B6855A",
"I. c #BA8659",
"U. c #B7885C",
"Y. c #BC8A5C",
"T. c #9AA949",
"R. c #86BB46",
"E. c #92B34E",
"W. c #A6B64D",
"Q. c #AFB550",
"!. c #929F60",
"~. c #BE8D61",
"^. c #BF9062",
"/. c #9AA561",
"(. c #A0BE65",
"). c #C18C5E",
"_. c #C28E61",
"`. c #C49264",
"'. c #C99466",
"]. c #C69669",
"[. c #CA9769",
"{. c #C7986A",
"}. c #CC9A6C",
"|. c #D19D6F",
" X c #CE9E71",
".X c #D19F71",
"XX c #CFA073",
"oX c #D2A274",
"OX c #D5A67A",
"+X c #D9A678",
"@X c #D7A97C",
"#X c #D9AA7D",
"$X c #83C444",
"%X c #8AC847",
"&X c #82C549",
"*X c #8CCA49",
"=X c #98C945",
"-X c #9BCB45",
";X c #92CC4B",
":X c #98D14A",
">X c #97CF51",
",X c #A2CC46",
"<X c #A5D149",
"1X c #ADD34A",
"2X c #BFD746",
"3X c #B7D74A",
"4X c #BCD64A",
"5X c #A9C654",
"6X c #B8CE58",
"7X c #A8D755",
"8X c #B9D854",
"9X c #AFD065",
"0X c #C5D949",
"qX c #C4DA49",
"wX c #CCDE52",
"eX c #DAE349",
"rX c #E3E654",
"tX c #888785",
"yX c #8C8B8B",
"uX c #959190",
"iX c #A6A8A1",
"pX c #ACACAC",
"aX c #BABABA",
"sX c #DCAD82",
"dX c #CACCCD",
/* pixels */
"_.Y.^.`. X}.`.U._.[.}.{.XXXXU.'.'.^.U.`._._.'._.).I.].].~..X'.`.}.`.|.'.[.}.).L.L.O.o.K.U.U.^.^.~.U.",
"Y.U.^.`.{.`.`._.'.}. X}.XX}.U.{.U.U.U.`._.Y.$ $ $ $ $ o {.}.'.`.|.`.|.`.L.).I.L.K.O.o.U.U.U.^.^.~.P.",
").U.^.'.^._._.|.'.}.{. XXX^.P.^.K.Y.K.`.L.m eXeX0XeX2XeX    '.'.|.'..X`.$.).K.+.L.O.O.U.U.~.^.U.^.P.",
"U.Y.K.`.`.^.'.|.'.}.}.XX}.^.P.^.U.^.^.Y.6X8X0X2X0X2X2X2XR.>X4 '.|.'.|._.L.L.).$.U.K.P.U.~.U.^.U.U.~.",
"L.+.~ .._.Y.}.|.[. X'.XX{.Y.U.).Y.^.5 ,.C.;X2XqXeX2X4X%X1X;XD.V .X[.}.`.L.Y.Y.$.K.U.K.P.U.P.^.P.$.~.",
"L.L...~ _.U.}.|.{. X}.OX}.Y.K.I.Y.H # x &.z.x.C.3X3Xb.v.k.7.k.7Xp Y.Y.I.L.I.K.K.L.P.@.K.U.U.^.^.~.$.",
"L.K.....).K.{. X}.XX}.+X|._.L.$.C J 3.< : t.y.B.&X&Xb.u.3 3 3 ;.2 L.K.K.K.K.Y.I.K.U.P.K.P.P.^.^.^.~.",
"K.O.O...Y.L.}.XX}.XX}.#X}.).$.J.4X=XV.:XwX< w.e.z.e.&.* rXwXeXC h @ U.U.$.K.~.I.L.O.#.K.U.U.^.^.~.~.",
"L.+.K.~ $.L._.oXoXoX}.`.O.O.F E.&XC.Z.C.*X6.&X-.z.e.2 3.0X2X0XQ.a h k G P O.~. .K.P.#.P.K.~.{.~.#.~.",
"U.K.L...I.Y.{..XoXOX{.^.O.g 4.n.1.> 3 > > V.C.h.B.6.D.$X4XeX0X0Xm f <.W.T.7 8 U.P.P.@.@.~.@.{._.~.P.",
"L.L.K.L.~.~.{.oXOXoX X`.G h t.u Z W.T.W.Q.a x.z.:.M.$XV.3X0X2X2XW., n 8X0XD./.yXP.~.}.K.{ { `.~.~.P.",
"U.L.Y.K.$.~.{.oXXXoX X`.G s d D S.0XwXqXwX3.V.x.4.V.-XC.%X1X2X=X%X3.Z R.E.,X(.L ~.^.].#.@.{ _.~.Y.$.",
"L.I.Y.$.$.U.{.XX^.#.X.yXa.j D E.H.qX0X,XF.8.V.V.M.V.F.V.b.8.F.V.b.R.%XR.8.n.R.3.6 [.}.K.X.{ #.#.#.I.",
"L.o.O.o.L.).`. X XaXuXJ D.B Z &XH.1X-X$XV.S S S S D V.M.b.b.V.%XC.b.$Xn.b.R.H.F * }.[.K.@.X.#.#.X.Y.",
"I.$.+.#.Y.Y.`. X8 S.T.Q.2XD.a 2.8.8.V.<.> Q.T.T.T.Q., 2.b.b.b.$Xn.V.V.:X:XC.$XR.!.L }.I.X.| #.@.$.Y.",
"U.I.o.O._.I.`.{.  S.qX4X2XH.A 2.V.M.b.B m wX8XqX4XeXp D d.z.b.g.c.b.V.>X:XV.n.&X(.8 }.L...X.Y.X.X.Y.",
"U.L.O.#.P.P.~.tX3.F.2X2X-X=X&X4.4.<.p D.4X-XqXqX=X=X4XS.2 *.z.d.j.V.g.c.b.5.,.5.a.8 .XY.X.~ $.#.@.P.",
"U.O.O.O.P.K.iXC 9XC.<X<XC.*X*X4.,.i > 3X<X&X<X>XM.8.<XqXX f f.c.j.M.5.j.v.4.:.>.g P }.L.$.o._.K.$.~.",
"~.K.X.O.P.U.X ;.B.n.%XC.M.&XC.V.V.A a 3.M.M.V.V.$XV.b.3.X < d ;.r.i.s.s.d.j.f.f % [.}.L.$. ._.K._.~.",
"`.Y.K.U.K.o.X c f.z.-X&XM.*X&Xb.z.h.n.<.b.%XV.V.-XV.A B V V B g c 9.9.0.-.-.w.b C [.|.I.#.o.#._.Y.~.",
"{.`.U.Y.$.$.7 z v i.x.b.b.v.z.g.f.f.V.x.b.-XV.b.V.V.4 D.1X1X1XZ u *.:.y.r.0.9.f.5X3 8 $.$.O.Y.I.]. X",
"_.`.L._.K.$.I.8 < s 4.s.s.s.y.t.i.j.b.b.V.V.b.b.V.V.:XC.*XC.V.H.D n.*X-XE.j f d.=XqXqXV o...I.I.`. X",
"[.).Y.).L.Y.Y.7 z < 0.9.9.w.9.f.f.s.B.b.B.Z.x.M.V.V.V.M.8X&XV.8.b.3X2X$XR.m @ >X4X4X8X2X6 +.L.)._.`.",
"'.Y.K.U._.pXa 6.u.e.c *.i.p.h.b.b.b.v.j.M.i.V.x.h.x.V.M.M.M.,XC.H.,X*X&X$X*X9XV 4X-Xb.b.6 ~ $.).{. X",
").I.Y.Y.).o 6XZ.z.y.q.s.5X7X*Xb.b.b.z.4.b.x.b.z.-.z.M.b.M.N.V.V.B.V.b.7X7XB.m.S 7XV.v.A.6 } $.$.`. X",
"_._.).Y.+ ,XV.V.x.k.4 3.&XV.C.:X-Xb.b.z.h.x.h.b.b.x.b.V.h.t.z.V.i.j.b.b.z.;.b j l.B.j.9.6 I.o.o.$. X",
"'.).L.).O &.A.M.l.i 6X*Xb.;X*XV.n.v.z.i.&.f.-.x.b.x.V.N.*.9.g.B.N.B.v.l.d.y O 9.-.N.d.9.6 _.O.O.$.}.",
"'.).)._.@ 9.e.h.0.2 c.b.b.b.V.V.b.i O 9.9.=.w.b.M.b.z.t.X l 9.5.:.g.s.:   g w.w.9.w.0.h 6 ).O.$.Y.}.",
"'.Y.L.Y.K.1 b &.&.v + n x.V.l.k.A g 0.f @ v &.c # h.9.w.0.2 X X X O O d x 0.0.9.0.v g _.Y._._._.~.].",
"_._.Y.`.K.).* l x x f 2 2.V.B * 2 v w.c f @ * # l e.w.9.9.x X s f f f l x x x 0.z }.`._.'.'.'.).~.`.",
"[.).U.'.L.`.].G h l f h 1 * s z f l l 2 o     X l l f l f *     o d l l f f f y 6 .X[.`.'._.[._._.}.",
").L.L.`.L.`.~.P.# @ @ # K.).H * * * * - 9   . 0 # @ # @ @     ; 9 % # @ @ @ @ H U..X[._.'.'.`.`._. X",
"_.).I.).+.).).K.).+.} o.$.L.'.).`.K . r Y w . M r w Y M q = r Y - `.L.`.}.oXK...).|.{.'.).'._.`.~. X",
"[.).).).+.).).+.K.+.} X.K.L.}.).`.|.).q r T t Y ! M ! ! & w M ; tX+.K.`.|..XK.U.Y.}.|.`.L.`._.'.`. X",
"}.).Y._.+.).).).+.....o.+.$..XY._.[.I.P = ] ^ Y ( / ( T e W ; yX[.K.L._.|.oXK.^._.|.|.`.'._._.'.]. X",
"[.L.I.`.).L.+.L.$...X.o.$.K..X)._.'.).yX. ] ( ( ] ( / Y / _ = pX[.K.L.`.|.XXU.).).|.}.L.Y._._.oX}. X",
"'.).L._.).L.).).}.#.{ o.+.+.|.).`.|.).yX. ] ( ' ^ ' / ^ ( [ = pX'.K.Y.'.[.|.Y.K._.|.}.I.).).|.oX X X",
"}.).).).).L.'.).}.#.~ } +.$.[.I._.[.).yX. ] ( I 9 U / Y ( ] - pX'.K._.+X}.}.Y.L.L.|.[.[.).).+XXX X}.",
"[.).Y.).+.).).).|.#. .} O.+.).)._.[.).yX. ] ( r 9 r ( Y / ] = pX'.K.).#X|.|.Y.I._.oX'.[.).^.+XoX X X",
"}.Y.L.L.).).).).|.$. .....+.Y.)._.'.).uX. ] ( ! r ! ( Y ( [ = pX'.K._.#X|.[.^.Y.'.|.'.[.U.U.#XoX.X X",
"'.).).L.).[.[._.'.$.o.$.o.o.).).'.[._.tX. ` Q ( E / ( E ! ] = pX_.^.^.sXXX}.L.L.).}.[.{._.{.#XoX X~.",
"'.).).+.).[.[.).|.$.@.$.+.+.).).`.}._.J T / Q t G.( ( [ ; R T K dX`.{.sXoX}.K.L.).|.`.{.'.`.@XoX].@.",
").).).+.).[.|.).'.$.@.I.+.+.).).'.uX!.T ' t N r ' N ( ' e t ` T %.uX^.#X#X}.`.Y.Y.'.`.[.{.{.@X{.{ $.",
").).).L.).|.[.).[._. ._...+.).aXP q 9 R N ; 6 ) T $ Q Q ) t t R t q J #X#XoXY.^.).'.Y.[.}.{.XX}.`.#.",
").L.).L.).|.'.'.'._.@._.L.I.`.6 - w ; - . 0 0 0 0 . 0 ; 0 0 . ; q w ; #X+XoXL.L.).'.`.{.XX}.}.`._.#.",
").L.L.).$._.'.).[.).@.~.L.).[.'.'.'._._.'.{.L.U.K.$.#.U._._.].'.^.K.U.#X#X}.K.K._.'.}.}.XX}.|.^.Y.#.",
").L.L.).[.'.[.'.'.$.{ ~.$._.'.|.'._.'.}.`.}.L.L.L.+.L.U.Y._.}.`.U.K.U.OX#XoX`.Y.)._.{.XX}.XX{.Y.Y.#.",
").).L.L..X}.}._._.$.@._._.I._.|.[.`.`.`.`.{.K.L.U.O.+.Y.Y._.`.`.).U.P.OX#X{.Y.Y._.'.{.XX}.oX`._.Y.U.",
").L.L.+.+X|.|._._.I.o.).Y._.`.'._.$. X].].}.$.~.~.o.#.$.'._.`.`.U.L.L.{.{.~.~.Y.`.{.{.}.oXXX`.).Y.$.",
").).L.+.+X+X|._.'.I.).I._.$._._.'._.].}.]. XI.I.`.$.+.I._.'.}.`._.I.L.L.U.@.{.`.`.}.}.XXXX}.U.K.K.U."
};
