/* XPM */
static char *wall[] = {
/* columns rows colors chars-per-pixel */
"50 50 7 1 ",
"  c black",
". c #302904",
"X c #096115",
"o c #776B24",
"O c #118E22",
"+ c #8F8181",
"@ c white",
/* pixels */
"+++++++++++++ ++++++++++++++@@++ +++++++++++++++++",
"++++++@@+++++ ++++@@@@@@@++@@@++ +++@@@@@+++++++++",
"++++@@@@@@+++ +++++++++++++@@+++ ++++++++++++@@+++",
"++@@+++++@+++ +++++++++    +++++ ++++++@+++++++@++",
"++++++++@++++ +++++++++ @@ +++++ ++++++++@@@@@++++",
"+++++++++++++ ++++++++  @@  ++++ +++++++++++++++++",
"                       @@@@                       ",
"                  @@@  @@@@                       ",
"++++@+++@@@@@@@@++++  @@O@OO  +++++++++++++++ ++++",
"++++++++++++++++++++ O@OOOXOO @@@@++++@++++++ +++@",
"+++++@+++++++++++++ @@O@OO@XO  +++++@@@++++++ +++@",
"++++++@@@@@@@@@@+++ @OOOOO@XOO @@@@@+++++++++ ++++",
"++++++++++++++++++ O@XXOOO@OXOO +++++++++++++@++++",
"+++++++++++++++++  @@XOOOO@@OXO  ++++++++++++ ++++",
"                  @@OOOOOO@@@@OO        @         ",
"                 OOOOOOOOOO@@OOOO                 ",
"++++@++++ +++++      @OOOOXO@      + +++++++++++@+",
"+++++++++ ++++++++  @@OOOOXX@@  ++++ +++++++++++@+",
"++++@++++ ++++++++ O@OOO@OOOX@O ++++ ++++++@++++++",
"+@++++@++ ++@++++ O@@OXO@@OOX@@O +++ +++++@+++++++",
"+++++++++ ++++++ OO@XXXOO@@OOX@@@ ++ +++++++++++++",
"+++++++++ +++++ OOOXXOOOOO@OOXOO@@ + +++++++++++++",
"               O@@@@@@@@OOOOOOXXX@@               ",
"              OOOOXXXXXX@@@@@OOOOO@@              ",
"+++++++++++  OOOOOOOOOOXXXXOOOOOOOO@O  ++++ +++@+ ",
"++++++++++@         OOO@@@@OOO         ++++ ++@+@+",
"++@@+++++++++++++  OOO@OOOOOOOO  ++++++@+++ ++++++",
"++++++++@++@@+++  @@OOOOOXXXXX@@  ++++++@@+ ++++++",
"+++++++@@++++++ O@@XXXXOO@OOO@O@@O ++++@+++ ++@@++",
"++++++++@@++++ O@@XXOOOOO@OOOOOO@@O +++++++ ++++++",
"++++++++++++  O@@XXO@@OO@XXXXXXOO@@@  +++++ ++++++",
"             O@@@@@OOOO@OOOOOOX@@@@@O             ",
"            @@@OOOOOOO@OOOO@@@@OOO@@@O            ",
"++@++++ +  OOOOOOXXXXXXXXXXXXXXXXXOOO@O  +++++++ +",
"+++@+++ +      OOOOOOOO@@@OOOOOOOOO      @++++++ +",
"+++@+++ ++++++    OOXXX@XX@@@@OO    +@++++@+++++ +",
"+++++++ ++++++++  OOOOOOOOOOOOOO  ++@++++@++++++ +",
"+++@+++ ++++@@  OOOO@OOXXXXXOOOOOO  +++++++++++@ +",
"+++@+++ ++++  OOO@@@@@@@@@@OOOOO@OOO  @@@@@++++@ +",
"+++++++ +++  OOO@@OOOOOOOOOOOO@@@@OOO  +++++++++ +",
"+++++++ +  OOOOXXXXXXXXXXXXOOOOXXXXXOOO  +++++++ +",
"             OOOOOOOOOOOOOXXXXOOOOOOO             ",
"    @                                             ",
"+++++++++++ ++++@++@ oooooo..  +++@@+++++@++++ +++",
"++++@++++++ ++++++++ ........  +++++++++++++++ +++",
"++++@++++++ ++@@+++@ ........  +++++++++++++++ +++",
"++++++@++++ +@+++++@ ..oooooo  +++++++++++++++ +++",
"++++++@++++ ++@+++++           ++@@+@@@+++++++ +++",
"++++@@@@+++ +@@++++++++++@@+++ ++++++@++@+++++ +++",
"+++++++++++ ++++++++++++++++++ +++++++++++++++ +++"
};
